<svg height="402" viewBox="0 0 353 402" width="353" xmlns="http://www.w3.org/2000/svg" xmlns:xlink="http://www.w3.org/1999/xlink"><mask id="a" fill="#fff"><path d="m0 402h353v-402h-353z" fill="#fff" fill-rule="evenodd"/></mask><g fill="none" fill-rule="evenodd"><path d="m283 385.654343c0 5.889007-81.341856 30.407286-136.47861 5.129542-12.703835-5.824307-10.927544-.341304-25.344491.702581-24.951751 1.805957-53.176899-.592721-53.176899-5.550742 0-4.908085 30.2635503-8.773153 50.020898-8.578619 25.383338.249682 56.011452-6.357105 90.261733-6.357105 63.46795 0 74.717369 8.765771 74.717369 14.654343" fill="#03243b"/><path d="m183 246h52v-2h-52z" fill="#03243b" mask="url(#a)"/><path d="m233 245c0 .552249.447677 1 .999835 1 .552488 0 1.000165-.447751 1.000165-1s-.447677-1-1.000165-1c-.552158 0-.999835.447751-.999835 1" fill="#03243b" mask="url(#a)"/><path d="m259 204.847001-1.654514-.847001-21.345486 41.152999 1.65494.847001z" fill="#03243b" mask="url(#a)"/><path d="m259.55426 204.96094c-.557384-.284147-1.114338-.568295-1.671723-.852442-.407601-.207892-.982632-.124395-1.211181.314394-.717498 1.377711-1.434566 2.755422-2.152064 4.133133-1.713473 3.292192-3.427377 6.584384-5.141281 9.87615-2.080615 3.996384-4.16123 7.992768-6.241415 11.989152-1.791378 3.440869-3.582326 6.881313-5.373704 10.322182-.871155 1.672934-1.782769 3.331811-2.615618 5.024342-.012052.024282-.024964.048139-.037446.071995-.210472.403856-.12568.973003.317214 1.199214.557385.284147 1.114769.568295 1.671724.852442.4076.207892.982632.124395 1.211611-.314394.717068-1.377711 1.434136-2.755848 2.151634-4.133559 1.713903-3.291766 3.427377-6.583958 5.14128-9.875724 2.080616-3.996384 4.160801-7.992768 6.241416-11.989578 1.791378-3.440443 3.582756-6.881313 5.373703-10.321756.871156-1.672934 1.78277-3.331811 2.615619-5.024342.012051-.024282.024964-.048139.037876-.072421.520799-1.00112-1.006305-1.888495-1.528826-.884394-.717498 1.377711-1.434566 2.755422-2.152064 4.133133-1.713904 3.292192-3.427377 6.584385-5.141281 9.876151-2.080615 3.996384-4.16123 7.992768-6.241845 11.989152-1.790948 3.440869-3.581895 6.881312-5.373273 10.322181-.590957 1.134461-1.181483 2.269347-1.77201 3.403807-.275464.529528-.62582 1.064595-.843609 1.620535-.009899.024709-.025394.048565-.037876.071996.403727-.104372.807454-.20917 1.211181-.313968l-1.671292-.852443c.105881.399596.211763.799192.317644 1.198788.717068-1.377711 1.434566-2.755848 2.151634-4.133133 1.713903-3.292192 3.427807-6.584385 5.141711-9.876151 2.080184-3.996384 4.1608-7.992768 6.241415-11.989578 1.790948-3.440443 3.582326-6.880886 5.373273-10.321755.590957-1.134887 1.181483-2.269347 1.77244-3.403807.275464-.529528.62539-1.064595.843609-1.620535.009469-.024709.024964-.048565.037446-.072422-.403727.104798-.807455.209596-1.211182.314394.556954.284148 1.114339.568295 1.671293.852443 1.01147.515896 1.90802-.996008.893967-1.513182" fill="#03243b" mask="url(#a)"/><path d="m213 244 15.164021-36.772199s21.791601-2.151997 28.835979-2.227801l-19.391678 39z" fill="#fff" mask="url(#a)"/><path d="m213.757891 244.35801c.505278-1.227142 1.010557-2.454285 1.516267-3.681427 1.213358-2.946838 2.427148-5.893675 3.640938-8.840512 1.46794-3.56486 2.936311-7.129719 4.404682-10.694579 1.269021-3.082056 2.538042-6.163264 3.807063-9.244896.416823-1.011386.833213-2.023196 1.250036-3.034582.195466-.475173.447458-.957552.596755-1.449257.006904-.02289.018554-.044932.027615-.066974l-.856082.640064c2.614417-.258569 5.230559-.501454 7.847133-.738405 4.899173-.444229 9.800934-.868113 14.709599-1.195775 2.140206-.142848 4.285158-.283154 6.430542-.307739-.255444-.437448-.510888-.874895-.766332-1.311919-.647671 1.304289-1.295774 2.608578-1.943445 3.913291-1.547765 3.116391-3.0951 6.232782-4.642865 9.349597-1.880016 3.785278-3.7596 7.570557-5.639615 11.35626-1.618962 3.261358-3.238356 6.52187-4.857749 9.783228-.536778 1.080903-1.073555 2.161382-1.610332 3.242285-.248972.501454-.576475 1.014353-.765469 1.541663-.00863.023314-.022869.04578-.033656.067822.255443-.143697.510887-.287817.766331-.431937h-8.336446-13.349102-3.051519c-1.142593 0-1.144319 1.743856 0 1.743856h8.336015 13.349102 3.05195c.294279 0 .632138-.161924.766332-.431513.647671-1.304713 1.295342-2.609427 1.943013-3.913716 1.547766-3.116391 3.095532-6.232781 4.643297-9.349172l5.639183-11.356684c1.619394-3.260935 3.238788-6.522294 4.858181-9.782805.791358-1.594225 1.610764-3.177854 2.375801-4.784372.010787-.02289.022438-.045355.033656-.067821.285649-.575634-.053073-1.320397-.766331-1.311991-4.305438.05009-8.616917.444725-12.905095.793158-4.434886.359453-8.86632.759175-13.295597 1.180091-.929004.088168-1.857577.177183-2.786582.268742-.435377.043236-.695135.249667-.855651.640064-.50571 1.227142-1.010557 2.454285-1.516267 3.681427-1.213358 2.946838-2.427148 5.893675-3.640938 8.840512-1.468371 3.565284-2.936311 7.130143-4.404682 10.695002-1.269021 3.081633-2.538042 6.162841-3.807495 9.244473-.41639 1.01181-.833213 2.023196-1.249604 3.035006-.19676.477716-.438397.957552-.596754 1.449257-.007336.022466-.018555.044508-.027616.066973-.179933.4366.195466.957977.620056 1.072425.507004.136915.911313-.170825 1.091677-.60912" fill="#03243b" mask="url(#a)"/><path d="m217 383h5v-127h-5z" fill="#fff" mask="url(#a)"/><path d="m216.925386 385h6.149031c.49249 0 .911017-.401563.911017-.877301v-3.453361-9.314397-13.809607-16.848189-18.388794-18.688902-17.306449-14.677529-10.552338c0-1.661672.032774-3.326753 0-4.987999-.001772-.072895 0-.145364 0-.217833 0-.474459-.417199-.877301-.911017-.877301h-6.149031c-.492489 0-.911017.40199-.911017.877301v3.453361 9.314397 13.809607 16.848189 18.389221 18.688475 17.306449 14.677955 10.551912c0 1.661672-.03233 3.326753 0 4.987999.001329.072895 0 .145364 0 .217833 0 1.128811 1.822034 1.130516 1.822034 0v-3.453361-9.314397-13.809607-16.848189-18.388794-18.688902-17.306449-14.677529-10.552338c0-1.653572.094335-3.336558 0-4.987999-.003986-.072469 0-.145364 0-.217833-.303377.292008-.607197.584441-.911017.876449h6.149031c-.30382-.292008-.607197-.584441-.911017-.876449v3.453361 9.314397 13.809607 16.848189 18.389221 18.688475 17.306449 14.677955 10.551912c0 1.653572-.094334 3.336558 0 4.987999.003986.072469 0 .145364 0 .217833.30382-.292008.607197-.584441.911017-.876449h-6.149031c-1.17232 0-1.174091 1.75375 0 1.75375" fill="#03243b" mask="url(#a)"/><path d="m202.208149 386c-1.103882 0-1.627267-1.410362-.808519-2.177804 4.524638-4.238151 10.519698-6.822196 17.10037-6.822196 6.580245 0 12.575305 2.584045 17.10037 6.822196.818748.767442.295363 2.177804-.808519 2.177804z" fill="#fff" mask="url(#a)"/><path d="m204.097169 385.140995c-.174207-.009417-.269034-.098209-.316233-.24799-.074231-.236779.108128-.373555.313658-.564144.697258-.645761 1.426696-1.249368 2.19132-1.805889 1.574729-1.147122 3.276466-2.12563 5.06359-2.860183 3.754892-1.542651 7.812286-2.106347 11.824198-1.673149 3.854868.416157 7.595171 1.839971 10.840744 4.042733.805385.546655 1.580307 1.139051 2.317039 1.78257.301645.263237 1.194992.813928.807103 1.224255-.138165.146642-.419642.101797-.614445.101797h-9.490853-14.288413c-2.834941 0-5.681897-.080271-8.51598 0-.043766.001346-.087962 0-.131728 0-1.135779 0-1.137495 1.844455 0 1.844455h7.938436 15.195492c3.173486 0 6.34826.032737 9.521746 0 1.012633-.009865 1.916278-.586566 2.181022-1.65835.254874-1.030078-.260453-1.829656-.971441-2.475866-.794659-.721996-1.630509-1.398252-2.498112-2.021142-3.499589-2.513535-7.556983-4.075918-11.764556-4.622573-4.280946-.555624-8.718935.00852-12.740287 1.644-1.936016.787918-3.786644 1.791539-5.495676 3.02835-.865457.626478-1.699591 1.304079-2.491676 2.028766-.722144.66056-1.179545 1.504534-.8779 2.531025.277615.944874 1.086005 1.498704 2.002952 1.54579 1.13535.058747 1.132346-1.786157 0-1.844455" fill="#03243b" mask="url(#a)"/><path d="m239 255c-4.635115 5.514719-11.426018 9-19 9-7.573559 0-14.364885-3.485281-19-9z" fill="#fff" mask="url(#a)"/><path d="m236.207191 255.315735c-3.544617 3.948982-8.320874 6.734707-13.581911 7.762827-1.260431.246499-2.612314.38956-3.858772.422092-1.315048.034619-2.691487-.05005-3.856232-.219388-2.615277-.379966-4.984564-1.134894-7.359356-2.366969-2.572938-1.335514-4.869826-3.15026-6.794131-5.294505-.348873.292795-.697323.58559-1.045772.878385h3.79357 9.108378 10.963671 9.527533c1.544102 0 3.088627.011262 4.632728 0h.065202c.396716 0 1.322669-.074658 1.158394-.68444-.151574-.562651-1.183797-.808732-1.664768-.808732h-3.793569-9.108379-10.96367-9.527534c-1.544102 0-3.088626-.011261-4.632728 0h-.065202c-.37851 0-1.646138.209378-1.045772.878386 3.977321 4.431134 9.370456 7.443338 15.256417 8.594082 6.032877 1.179939 12.430292.358695 17.897944-2.434956 2.865077-1.463559 5.440978-3.474753 7.577402-5.85507.682503-.759933-2.026343-1.6037-2.683443-.871712" fill="#03243b" mask="url(#a)"/><path d="m163 255h117v-9h-117z" fill="#fff" mask="url(#a)"/><path d="m162.874931 254.987561h3.130526 8.443064 12.517852 15.272374 16.669202 16.940146 15.687935 13.304737 9.565119c1.50614 0 3.015258.027987 4.521398 0 .065929-.001272.131857 0 .197785 0 .472556 0 .874931-.399445.874931-.87225v-8.230622c0-.471532-.401099-.87225-.874931-.87225h-3.130526-8.443489-12.517852-15.271949-16.669202-16.940571-15.68751-13.304737-9.565544c-1.50614 0-3.015258-.027987-4.520973 0-.065929.001272-.131857 0-.197785 0-.472982 0-.874931.399445-.874931.87225v8.230622c0 1.122434 1.749862 1.124554 1.749862 0v-8.230622c-.291785.290468-.583145.58136-.874931.872251h3.130526 8.443064 12.517852 15.272374 16.669202 16.940146 15.687935 13.304737 9.565119c1.500185 0 3.022914.075903 4.521398 0 .065503-.003392.131857 0 .197785 0-.291786-.290891-.583571-.581783-.875356-.872251v8.230622c.291785-.290892.58357-.58136.875356-.872251h-3.130526-8.443489-12.517852-15.271949-16.669202-16.940571-15.68751-13.304737-9.565544c-1.50614 0-3.015258-.027987-4.520973 0-.065929.001272-.131857 0-.197785 0-1.125884 0-1.127585 1.744501 0 1.744501" fill="#03243b" mask="url(#a)"/><path d="m65.1871008 269-.1871008-.1869c.6115805-.287973 1.2095611-.553924 1.8273233-.8131l.1726767.193394c-.6128168.257199-1.2058521.520892-1.8128992.806606" fill="#e70070" mask="url(#a)"/><path d="m46.1480519 283-.1480519-.320028c.0026438-.001317.0044063-.002195.0070501-.003512.0013219-.000439.003525-.001756.0048469-.002195 7.0240956-3.223551 10.9324908-6.403641 14.713103-9.478371 1.3580241-1.104954 2.6407004-2.148449 4.0573284-3.189748.0022031-.002195.0052876-.003951.0079313-.006146l.2097403.284031c-1.4113404 1.037348-2.6926948 2.079526-4.0489564 3.183162-3.7885436 3.081755-7.706192 6.26843-14.7395408 9.503833-.0026438.001317-.004847.001756-.0074907.003073-.0101345.004829-.0202691.009219-.0299629.014048-.0022032.000878-.0044063.002195-.0066095.002634z" fill="#e70070" mask="url(#a)"/><path d="m38.4498524 286.02529c21.2988758-7.435839 20.6971453-14.964276 35.9514809-20.927899 13.2197717-5.168048 22.9057599-4.512644 30.5963347-3.053171 37.025574 7.789664 52.892279 14.179746 66.548242 25.884417 30.994226 26.565307-17.09272 76.525941-14.122793 80.604906s6.285402 9.699807 10.477515 11.807039c1.720932.865235 3.345264 1.635324 4.747457 2.27841 1.076647.49357.731099 3.362821-.453638 3.37259-2.221381.018689-9.27831.000425-9.27831.000425-5.300249 0-10.172819-6.390506-14.455149-8.192336-4.282329-1.80183 1.639227-7.790938 1.639227-10.387918 0-15.920834 2.138824-46.230396-9.907276-48.815482-21.847412-4.68807-42.5364716 3.686488-65.6413898 3.210757-22.2504099-.458315-44.6191233-11.039499-55.5515532-32.54592 0 0 5.2755677 1.71263 19.4498524-3.235818" fill="#fff" mask="url(#a)"/><path d="m38.5705968 286.779183c4.8485486-1.700402 9.6075777-3.733058 13.9833779-6.441279 3.0133981-1.86504 5.7688947-4.072117 8.5120291-6.304719 2.6229224-2.135182 5.3106399-4.162732 8.2878039-5.787835 4.4985699-2.455522 9.4660516-4.162731 14.4595366-5.279458 4.6256023-1.03462 9.3680063-1.42473 14.0993269-1.109069 4.7603078.317363 9.3961408 1.42388 14.0400738 2.45765 9.610135 2.139861 19.206629 4.489028 28.54437 7.627349 6.699045 2.251746 13.266369 4.954862 19.371601 8.532642 2.637416 1.545124 5.180197 3.24893 7.612571 5.099505 2.609281 1.985008 5.159309 4.104449 7.281775 6.613149 4.212533 4.979111 6.351624 11.23746 6.486756 17.718303.13769 6.606767-1.543999 13.135683-3.870654 19.275764-2.376957 6.272388-5.513125 12.240175-8.907194 18.017374-2.759333 4.697483-5.755254 9.244794-8.623716 13.874636-.91523 1.476632-1.845807 2.965175-2.586262 4.538803-.419463.891254-.991109 2.053926-.663723 3.06217.227635.701517.861945 1.317525 1.276293 1.910135.732781 1.048234 1.457463 2.102423 2.207296 3.138746 1.447232 1.999047 2.978016 3.998094 4.856648 5.61639 2.026125 1.744221 4.52841 2.775438 6.934354 3.887485.393033.181654.560562.176974.641556.588781.063517.323319.028561.702793-.08142 1.013775-.043907.123371-.080141.207604-.150904.319064-.104866.166339.127885.017868-.069911.034459-.32568.026802-.665002.003829-.991961.00468-1.835151.00553-3.670728.002978-5.506304 0-1.136899-.001702-2.337313.095294-3.469948-.049774-2.182145-.279926-4.140918-1.598302-5.872908-2.865201-1.841971-1.34773-3.556483-2.87371-5.47007-4.122742-.780951-.509653-1.721759-.808298-2.471592-1.342199-.477011-.340336-.612569-.822337-.562268-1.389421.138542-1.579158 1.171427-3.09663 1.896962-4.460525.379392-.71428.759211-1.438769 1.03118-2.201972.24426-.685351.260459-1.349431.263017-2.067965.00682-1.73869.032397-3.47738.057974-5.216071.120212-8.128918.291152-16.308462-.59296-24.404623-.39005-3.571398-.954449-7.179383-2.135681-10.585718-.914378-2.637602-2.233725-5.340293-4.471287-7.110889-1.011997-.801065-2.165521-1.371979-3.427746-1.657435-2.840327-.641533-5.761648-1.017604-8.662933-1.243076-5.743318-.444989-11.513492-.165489-17.235069.424994-11.704466 1.206915-23.2755056 3.612663-35.0635234 3.973419-9.8258348.301197-19.5932688-1.038449-28.794172-4.575813-8.7822928-3.376982-16.808785-8.718551-23.0768577-15.746058-3.1851903-3.571824-5.8690713-7.554602-8.044396-11.812202-.3303697.428397-.6603132.85722-.9902566 1.285618.8853908.283755 1.9088975.302048 2.8283911.316087 2.9767377.045094 5.9743633-.469664 8.8649918-1.132893 2.7976986-.641958 5.5459484-1.482587 8.2558326-2.424041 1.0588883-.367988.6036175-2.059031-.4663541-1.68764-4.0842223 1.418775-8.2920668 2.658448-12.5898571 3.229361-1.1987092.159107-2.4093544.25908-3.619147.266313-.4339566.002977-.8683395-.006382-1.3014435-.034459-.1534621-.009785-.3069241-.021271-.4599599-.036587-.0988978-.009784-.5349858-.068067-.2574753-.026376-.2634432-.039564-.5345595-.07615-.7890507-.157405-.7711469-.247169-1.3189212.642384-.9898303 1.285193 4.4695825 8.747904 11.138788 16.202958 19.2850658 21.701082 7.8807032 5.319022 16.9980548 8.754286 26.3647823 10.318979 11.0731404 1.849299 22.2703293.837226 33.3208766-.667909 11.5991744-1.579583 23.2763584-3.68541 35.0277154-2.727791 2.750808.224197 5.589003.534753 8.26308 1.239673 1.122404.295667 2.128007.888702 2.969491 1.690193 2.078558 1.980328 3.162171 4.839148 3.91925 7.54269 2.146764 7.663935 2.197492 15.912822 2.202181 23.81244.002558 3.94917-.08142 7.896639-.126606 11.844959-.017052 1.486417.200353 2.997933-.386639 4.332899-.700384 1.594473-1.671458 3.051536-2.318556 4.673661-.568236 1.42473-.862798 3.185968.286888 4.414154.607454.648765 1.465137.901464 2.221364 1.326033.955301.536454 1.844955 1.18607 2.714147 1.85015 3.310091 2.526993 6.796664 5.907378 11.231291 5.963533 3.034713.039139 6.108643.130178 9.140371.000425 1.847087-.078702 2.436637-2.421914 1.89483-3.908755-.405821-1.112898-1.550393-1.397079-2.534681-1.862488-1.286524-.60835-2.623775-1.180539-3.840388-1.921195-2.08069-1.266049-3.729981-3.21362-5.191707-5.127583-.810365-1.061422-1.578102-2.154325-2.341149-3.249355-.636441-.912525-1.224713-1.913112-1.945558-2.760974-.130017-.153151.072894.214412.005542.014039-.005542-.017017-.006395-.081255-.018331-.088487.116376.073597.018331.251423.022167.151024 0-.004254-.00682-.08636-.003836-.086786-.005116.000851.028987-.381601.001705-.140814-.019609.173571.028561-.139963.049022-.215262.063943-.23781.143658-.467536.228915-.698965.024298-.066365.052432-.131029.078862-.196118-.073747.180378-.01833.04084.022167-.047647.066926-.14677.133426-.29354.203337-.438608 1.883747-3.90833 4.493454-7.508657 6.80178-11.171945 3.410694-5.411764 6.697766-10.911164 9.53042-16.650075 3.047927-6.175817 5.658061-12.670273 6.972719-19.451037 1.243043-6.412776 1.298034-13.18801-.998782-19.380418-1.188052-3.202985-2.938372-6.144336-5.146094-8.751733-2.20687-2.607397-4.871568-4.77959-7.5806-6.844152-5.127338-3.907905-10.743197-7.10153-16.641256-9.697441-7.65051-3.366771-15.664213-5.847818-23.732481-7.997038-5.314477-1.416222-10.668171-2.683122-16.037212-3.874722-4.664394-1.034621-9.318984-2.110933-14.0989008-2.429572-4.7551925-.317363-9.5363883.08168-14.1914042 1.089074-5.1512099 1.115025-10.2794005 2.877539-14.9331375 5.366244-6.2135084 3.322102-11.0799609 8.512222-17.0385518 12.214649-4.2730658 2.655044-8.9050624 4.652389-13.645335 6.314929-1.0576094.370966-.6023386 2.062435.4663541 1.68764" fill="#03243b" mask="url(#a)"/><path d="m94.4377731 260.404216s-22.7359463-17.587044-21.3793965-26.404216c0 0 23.9323509 23.615719 45.5464284 25.162943 12.992639.930635 19.12927.330239 36.575736-4.650193 9.051191 4.948047 15.819459 13.132864 15.819459 20.051694 0 2.499164-1.115906 6.160344-2.874949 10.435556-13.887493-10.09509-39.254337-20.516585-73.6872779-24.595784" fill="#03243b" mask="url(#a)"/><path d="m110.771253 365.148356c-4.24411 4.999756-6.777092 8.610217-5.899339 9.422092 3.620679 3.34707 17.594324 9.213591 17.594324 9.213591.966511.608481.534675 2.099046-.608496 2.099046 0 0-4.796706.254031-9.065992.013191-2.504819-.141269-4.165595-.83315-6.335869-.83315-5.869469 0-11.4321289.819959-11.4321289.819959-2.0674355 0-3.5263751-2.024581-2.861126-3.976401.8666588-2.543279 2.9981016-5.558876 4.449787-9.818242 1.044599-3.065807 2.1724075-6.484363 3.339047-10.088442z" fill="#fff" mask="url(#a)"/><g fill="#03243b"><path d="m110.167259 364.437508c-1.333421 1.574356-2.646626 3.170179-3.872083 4.830401-.785428 1.063882-1.591073 2.168979-2.124011 3.386132-.354432.809718-.647354 1.816499.049466 2.539062.686066.710972 1.605267 1.268673 2.434139 1.795033 4.235978 2.688898 8.900801 4.762566 13.486049 6.777845.578533.254164 1.158356.505752 1.73947.753476.113986.048514.357012.194057.463686.195774-.460245-.008586-.091619-.175167-.12775.006011-.006452.033488.021507.135239.016345.160999-.021937.114631-.069682.1859-.255501.225399-.205175.042503-.484333.014168-.699401.022754-.653806.026619-1.308043.046368-1.962279.060536-1.970453.043362-3.943916.042074-5.913508-.048944-1.954968-.090159-3.825199-.595052-5.762961-.803278-2.114117-.227545-4.328027-.021037-6.443865.12236-1.6452696.110767-3.2879584.264897-4.9254857.462389-.4525029.054525-.9045757.112914-1.3557882.175167-.0701122.009445-.1496873.032629-.2202296.030912.1565695.003864-.0430136-.034776-.129901-.054955-.2051748-.047655-.4013168-.09617-.5910067-.188476-.5824039-.283358-1.0142603-.826891-1.1613668-1.455431-.1664626-.71269.1088244-1.385451.3849716-2.03374.6292888-1.47604 1.4314921-2.876517 2.1437971-4.312628 1.8667897-3.763514 3.0625674-7.804376 4.365879-11.78556.3462593-1.059159.6907983-2.119177 1.0336163-3.178766-.362604.205221-.725639.41087-1.0882435.616519 3.1847255.927355 6.3690215 1.855139 9.5537475 2.782923.450782.131375.901565.26275 1.352777.394125 1.095126.318993 1.563114-1.385021.470139-1.703155-3.184296-.927354-6.369022-1.855568-9.553318-2.783352l-1.353207-.393696c-.4735796-.137815-.9428578.167868-1.0882438.616948-.7127351 2.204185-1.4323524 4.406223-2.1635833 6.604396-.6731627 2.023436-1.2972898 4.079502-2.1605725 6.032527-.7454254 1.688129-1.6315053 3.305418-2.4496237 4.957913-.7105845 1.434823-1.5601028 3.010467-1.1540545 4.654804.4103496 1.663657 2.0569097 3.045673 3.8140147 2.965817.1152764-.005152.2335637-.03177.3488401-.047655.0541972-.007728.1088244-.015027.1630215-.022755.1436654-.020178-.0550574.007299-.0692518.009445.0675313-.009445.1350626-.018031.2025939-.027047.5858451-.075992 1.1721203-.145114 1.7592557-.208655 1.9308799-.209943 3.8682117-.363643 5.8085547-.452086 1.159646-.052807 2.325745-.097458 3.486681-.077279.926513.016314 1.829798.176884 2.737385.349475 3.817456.727716 7.72567.662887 11.596463.520349 1.040929-.03864 2.136915-.008586 2.756741-1.023525.407338-.66718.383681-1.546449-.055918-2.188299-.215068-.312982-.492506-.539668-.840916-.68607.118718.050231.276578.117207.096781.040357-4.040266-1.722475-8.050423-3.548849-11.926807-5.615647-1.150184-.612226-2.289614-1.248923-3.390761-1.945727-.447342-.2825-.888661-.575733-1.315786-.887856-.225821-.165722-.194421-.137816-.44347-.344324-.076994-.063541-.153989-.12837-.228402-.194916-.132912-.118066-.149687-.210801-.069252-.028765-.035701-.081573.083446.227116.006882.004293.110115.318993-.03097-.002576.015915-.001717-.003441 0 .020217-.187618-.00172-.018891-.018496.142109.00086.00644.010323-.028335.026238-.097888.049465-.194917.081296-.291087.021076-.064399.112695-.296238.09721-.259745-.013334.030053.095921-.200927.124309-.258028.131622-.264038.277008-.521637.428416-.774513.864573-1.446415 1.906792-2.79022 2.958044-4.103114.707574-.883563 1.431062-1.753387 2.162723-2.617201.730801-.863384-.514872-2.118318-1.251265-1.248923" mask="url(#a)"/><path d="m308.850781 85.8378978v-11.6172227-6.1288814c0-2.4194406.352127-4.7594508 1.48332-6.939326 1.592096-3.0697503 4.394494-5.5159508 7.759695-6.5043705 3.469247-1.0190024 7.250637-.4867765 10.34196 1.3545639 3.081435 1.834969 5.330491 4.8698888 6.193826 8.3172519.509058 2.030784.40802 4.1053184.41146 6.1798528.003439 2.5766023.009029 5.1532046.015478 7.7302316.004729 2.0800563-.059333 4.1426974.49143 6.1696585.469933 1.7283539 1.285543 3.3747289 2.366862 4.8095727 2.200472 2.9202342 5.550194 4.9476201 9.181962 5.5614003.875373.1482417 1.754186.2293711 2.642458.2293711.412749 0 .997908-.1180837 1.207293-.5224565.191326-.3703918-.1651-.6345934-.525826-.6345934-3.651976 0-7.154759-1.4586304-9.683711-4.0692137-1.266626-1.3074154-2.268834-2.8505733-2.918485-4.5432473-.723601-1.8838165-.903749-3.7901454-.908909-5.7886476-.006449-2.584248-.012038-5.168496-.016768-7.752744-.004299-2.2232008.16768-4.5249826-.190897-6.7282196-.595047-3.6554962-2.686742-6.9503699-5.682188-9.1548813-6.32195-4.6532605-15.751991-3.3505174-20.698969 2.6598556-2.13039 2.5884956-3.314896 5.7945942-3.319625 9.1353422-.00258 1.5830855 0 3.1665958 0 4.7496813v13.3846547.2913862c0 .8431513 1.849634.5016432 1.849634-.1890188" mask="url(#a)"/><path d="m321.743472 54.1100158c2.355085 0 4.712728.6380439 6.794581 1.8779129 3.08612 1.8379035 5.355527 4.8857742 6.226376 8.3615345.43649 1.7414599.42626 3.5355637.416456 5.2702852-.001705.3002807-.003837.6009827-.002984.9016846.003836 2.5547027.009377 5.1094054.015345 7.6645293v.6262518c-.002131 1.8825455-.003836 3.6602244.480821 5.4429572.454393 1.6702853 1.254909 3.2976133 2.315869 4.7055215 2.153038 2.8575104 5.427139 4.8407111 8.982998 5.4416937.880653.1490875 1.751502.2248948 2.58825.2248948.375108 0 .869569-.1090782 1.028564-.4165185.060103-.1153954.020887-.1785681.008099-.1992045-.057971-.0934955-.20631-.158774-.361042-.158774-3.668817 0-7.217856-1.4912961-9.737478-4.0923255-1.296682-1.3384183-2.283473-2.8751987-2.933093-4.5669628-.801794-2.0876462-.909212-4.1992979-.913475-5.8051472-.00682-2.5622834-.011935-5.1245669-.016624-7.6868504-.000852-.5483387.008526-1.1017313.018756-1.6572297.028985-1.6513335.05925-3.3591014-.205457-4.9847447-.571615-3.5124004-2.598054-6.777164-5.559706-8.9574634-6.115549-4.5012632-15.395224-3.3085632-20.262258 2.6056621-2.090377 2.5403836-3.244262 5.7150208-3.248951 8.9401961-.001705 1.0461394-.001173 2.0927-.000427 3.1392605l.000427 15.1294332c0 .0993916.037937.1693027.118926.220262.088662.0560131.224639.0867571.383634.0867571.472296 0 .953543-.2493214.953543-.4940102v-17.595273c0-2.7909686.474001-5.0045389 1.491483-6.9658397 1.652183-3.1855871 4.498319-5.5701448 7.807373-6.5421616 1.176904-.3461863 2.393449-.5163313 3.609994-.5163313m27.817712 40.8899842c-.857635 0-1.749797-.0770707-2.651762-.2299485-3.650489-.6165653-7.011973-2.652831-9.222556-5.5861486-1.089094-1.4458118-1.911349-3.1165183-2.377251-4.8318669-.497445-1.8303228-.495314-3.7162375-.494035-5.5402431v-.6254094c-.006394-2.5547027-.011935-5.1094055-.015772-7.6645294-.000426-.3015442.001279-.6030884.00341-.9042115.009804-1.7119793.020035-3.4824986-.404946-5.1784742-.846978-3.3805801-3.053725-6.3446418-6.05502-8.131586-3.066513-1.8269536-6.748971-2.3091717-10.10193-1.3240992-3.211441.9433786-5.973604 3.2597098-7.579324 6.3555917-.988923 1.9065512-1.44971 4.065793-1.44971 6.7952735v17.595273c0 .518437-.688409.8671501-1.331209.8671501-.233164 0-.436064-.050117-.586534-.1452971-.189259-.1191858-.293692-.3091249-.293692-.5348619l-.000853-15.1294332c0-1.0465605 0-2.0931211.000853-3.1396816.004688-3.3102479 1.188838-6.5686942 3.333777-9.1751985 4.991502-6.0645763 14.507324-7.2863357 20.780589-2.6688347 3.039658 2.2371548 5.119806 5.5895177 5.707192 9.1966772.269396 1.6584931.239132 3.383107.210146 5.0508654-.01023.5529715-.019608 1.1038372-.018329 1.649649.004262 2.5622835.009804 5.124567.016624 7.6868504.005541 2.3702386.271101 4.0670565.888325 5.673748.631291 1.6445952 1.591654 3.1388394 2.853383 4.4414598 2.44801 2.5277491 5.898156 3.9769301 9.464245 3.9769301.288152 0 .556269.1322415.683295.3373421.104433.1688816.106565.3689284.005967.5635002-.297103.5748713-1.119784.6195133-1.364883.6195133" mask="url(#a)"/><path d="m280 51.7414715v4.7050424 11.9657426 16.1715403 17.3215862 15.415456 10.454848 2.411743c0 2.064479.310392 4.089901 1.113834 5.996881 1.529078 3.628439 4.471147 6.503767 8.100574 7.888152 3.742183 1.427687 8.043988 1.189527 11.631391-.592216 3.463828-1.721036 6.23822-4.856599 7.434853-8.607303.472245-1.480753.716898-3.006506.718978-4.564099.000832-.605377 0-1.210754 0-1.81613v-15.01258-1.178913c0-.951367-1.803687-.683066-1.803687.137122v12.657723c0 1.773253.00208 3.546931 0 5.320183-.003745 3.356742-1.14296 6.589947-3.35981 9.088718-2.407413 2.714006-5.866664 4.224477-9.449907 4.156552-3.723043-.070896-7.283817-1.910375-9.624658-4.847684-1.90729-2.393063-2.949975-5.397872-2.958297-8.481642-.001248-.559528 0-1.119056 0-1.678583v-9.165133-14.581683-17.0087091-16.478474-12.9897038-6.5300877-.2954714c0-.951367-1.803271-.6830654-1.803271.1371225" mask="url(#a)"/><path d="m280.305739 51.3786495c-.433489 0-.916608.2290701-.916608.55729v78.9706465c0 2.245828.379028 4.196343 1.159486 5.962661 1.59561 3.610419 4.671762 6.467385 8.440531 7.838387 3.853094 1.401773 8.386509 1.182105 12.124534-.589343 3.690591-1.748369 6.514642-4.86603 7.747914-8.552948.495416-1.479982.747517-3.006119.749713-4.536102v-1.218858-16.909308c0-.378222-.418557-.419249-.59819-.419249-.433929 0-.917048.22907-.917048.55729l.000439 14.527149c.000879 1.190652.001318 2.380876-.000439 3.571101-.003513 3.492892-1.281144 6.787057-3.597041 9.276485-2.574586 2.768501-6.265178 4.318143-10.122225 4.246773-3.923806-.071371-7.776462-1.921882-10.307128-4.950223-2.033053-2.433016-3.157404-5.50794-3.166187-8.657227l-.00044-1.127401.00044-78.1278739c0-.1359035-.050948-.2371901-.156355-.3085608-.105408-.0713708-.262202-.1106888-.441396-.1106888m13.99201 94.6213505c-1.863962 0-3.720457-.31027-5.445192-.937649-3.86715-1.407328-7.024114-4.338657-8.661009-8.043524-.801978-1.814612-1.191548-3.813847-1.191548-6.112241v-78.9706465c0-.5778037.677684-.9359395 1.305739-.9359395.599507 0 .986881.313262.986881.7978991v79.2544199c.008345 3.062958 1.101512 6.053264 3.078787 8.419182 2.459076 2.942868 6.202371 4.741239 10.012425 4.810473 3.739342.070943 7.327161-1.43468 9.827083-4.12198 2.250896-2.419767 3.492512-5.624185 3.496465-9.023056.001318-1.190224.000878-2.380021.000439-3.570246l-.000439-14.527576c0-.577804.677684-.93594 1.305739-.93594.599507 0 .986881.313262.986881.797899v18.128593c-.002196 1.569729-.260445 3.135184-.768599 4.652774-1.265333 3.784358-4.162291 6.98322-7.94731 8.776463-2.159982 1.023123-4.579091 1.541095-6.986342 1.541095" mask="url(#a)"/><path d="m253.787095 57.325662v-3.1760201-7.8976063-10.2684745-10.3323551-7.9713475c0-1.0756797-.003747-2.151788 0-3.2278964.017486-4.69071765 2.326064-9.16321257 6.252519-11.6026773 3.870667-2.40516646 8.817143-2.25682643 12.675736.09260534 3.978913 2.42231559 6.478172 6.96297834 6.498156 11.71800526.010825 2.6709781 0 5.3428137 0 8.0137917v.8836093c0 .8124404 1.786494.4475925 1.786494-.2079333v-8.101681c0-1.6510332-.092843-3.2711979-.54415-4.8682113-.65198-2.30784507-1.888079-4.45234465-3.543427-6.14625065-3.513035-3.59488784-8.613555-4.93938018-13.417645-3.88299334-4.741223 1.04309626-8.781754 4.5295158-10.554925 9.1765032-.634078 1.66218009-.93717 3.42854119-.939853 5.21205149v1.3594978 6.7366097 10.0000905 10.7983828 8.9831467 4.7035796.2135067c0 .8120117 1.787095.4471638 1.787095-.2079333" mask="url(#a)"/><path d="m254 110.251439v-8.664613-13.8019899-3.1557935c0-.969435-2-.7303216-2 .1193473v8.6650318 13.8015713 3.155794c0 .969853 2 .730321 2-.119348" mask="url(#a)"/><path d="m253.120627 83.3795477c-.377748 0-.781877.2313271-.781877.5757474v26.2110709c0 .421529.41407.454086.541005.454086.377366 0 .781878-.231327.781878-.575747v-26.2110708c0-.4211009-.41407-.4540865-.541006-.4540865m-.240872 27.6204523c-.526094 0-.879755-.334996-.879755-.833634v-26.2110709c0-.589884.581533-.9552951 1.120627-.9552951.526094 0 .879373.3349959.879373.8336342v26.2110708c0 .589884-.581533.955295-1.120245.955295" mask="url(#a)"/><path d="m225.011814 169.369753c0 1.146966-.042027 2.30532.032456 3.450598.125665 1.931576.652876 3.828561 1.54668 5.539517 1.776372 3.399978 4.838523 5.943212 8.47865 7.040401 3.850679 1.160885 8.099158.600269 11.594895-1.368428 3.31473-1.866613 5.831777-5.079719 6.841259-8.787213.443157-1.627855.490177-3.265413.490177-4.933764v-5.468649-16.462473c0-3.581788.009155-7.163998 0-10.745786-.000416-.058634 0-.116847 0-.175482 0-.798531-1.785942-.439129-1.785942.204589v8.661928 16.23637c0 3.062089.011235 6.124179 0 9.186268-.012484 3.466205-1.281202 6.857746-3.675081 9.355422-2.458792 2.566013-5.843844 3.951736-9.372453 3.783846-3.657188-.174217-7.087596-2.01552-9.388683-4.884409-1.155536-1.44014-2.001487-3.107647-2.488751-4.897065-.404875-1.486963-.487265-2.982784-.487265-4.51404v-1.426219c0-.798531-1.785942-.439128-1.785942.204589" mask="url(#a)"/><path d="m224.408067 168.485562c-.479638 0-1.006713.252452-1.006713.482264 0 .30841-.003074.617674-.006149.927366-.008784.840225-.017569 1.709069.03997 2.55442.130451 1.925213.687393 3.838465 1.610652 5.533011 1.841247 3.380976 5.060793 5.946075 8.83289 7.037043 3.954815 1.143082 8.361158.644159 12.089332-1.369904 3.479131-1.879933 6.077608-5.081502 7.128243-8.783275.470853-1.659092.510384-3.353211.510384-4.945665l.002196-25.835527c.002196-2.418156.004392-4.835884-.002196-7.254041v-.177698c0-.08885-.03426-.149079-.110686-.194786-.086089-.051686-.220493-.080306-.378615-.080306-.479638 0-1.006712.252452-1.006712.482265l.002635 28.313484c.002635 2.06703.005271 4.134487-.002635 6.201945-.013616 3.668027-1.410803 7.078905-3.934172 9.605132-2.639765 2.642416-6.301176 4.057599-10.042087 3.888443-3.871362-.176844-7.534969-2.005092-10.05175-5.015719-1.242578-1.485665-2.138604-3.177221-2.663922-5.028108-.459433-1.618511-.521365-3.244284-.521365-4.62145v-1.443803c0-.088849-.034259-.149079-.110685-.194785-.086089-.052113-.220493-.080306-.378615-.080306m13.776409 17.514438c-1.496013 0-2.984998-.203756-4.416445-.618101-3.871801-1.119588-7.176119-3.752179-9.06612-7.222004-.948295-1.741534-1.52061-3.707327-1.655014-5.685508-.057978-.859447-.049194-1.735553-.040849-2.582612.003075-.308838.00615-.61682.00615-.923949 0-.554027.82531-.860728 1.395869-.860728.232352 0 .434397.047415.583295.136691.190186.114479.295162.297731.295162.516864v1.443803c0 1.351536.060174 2.945699.507309 4.521068.510823 1.799627 1.382253 3.44505 2.590571 4.890134 2.447383 2.926904 6.007332 4.704319 9.768448 4.876038 3.627151.164457 7.182707-1.209719 9.744729-3.773964 2.452653-2.455746 3.810748-5.773502 3.824364-9.342856.007467-2.066603.004832-4.133633.002196-6.200236l-.002196-28.313911c0-.554028.824872-.860729 1.39543-.860729.232791 0 .434397.047415.583296.137119.190186.114051.295161.29773.295161.516437v.176844c.00615 2.418583.00423 4.836739.002197 7.255323l-.002197 25.835099c0 1.618511-.040409 3.341677-.524439 5.046475-1.078306 3.799166-3.744425 7.084458-7.314476 9.013088-2.470222 1.334449-5.232532 2.019615-7.972441 2.019615" mask="url(#a)"/><path d="m197.790685 73.1981179v-14.7076481-17.7668115c0-3.7296415 1.164312-7.2736583 3.695659-10.0022982 3.363058-3.623754 8.430749-4.7679394 12.987258-3.0488747 4.708031 1.7756522 8.088573 6.2863749 8.656367 11.4028428.108231.9774233.088666 1.9595622.088666 2.9412724v10.9741485 18.7073671 22.36756 22.0571848 17.433288 8.852539.395685c0 .419692 1.78081.12175 1.78081-.491712v-6.322385-16.126198-21.5517549-22.949727-19.9874487-12.724079c0-.7905125.001249-1.581025 0-2.3719662-.007077-4.0760266-1.697139-8.0002953-4.674314-10.7010701-3.850928-3.4930022-9.343632-4.4206969-14.180291-2.8173798-4.776301 1.5831685-8.640133 5.5618814-9.779885 10.6513416-.457899 2.045301-.35508 4.1617654-.35508 6.245649v9.5654586 19.3088253 1.1574749c0 .4196919 1.78081.1221779 1.78081-.4912838" mask="url(#a)"/><path d="m225.119832 142.585956c.134016.069221.698637.046147 1.143304-.152115.213985-.095713.347121-.213646.347121-.308077v-101.6989096c-.007469-4.0447289-1.781743-7.8809402-4.868048-10.5245845-3.900502-3.340982-9.563414-4.4019435-14.779462-2.7701223-5.135639 1.6074657-9.040974 5.6227116-10.193066 10.4792918-.403364 1.7010422-.389303 3.4871152-.375242 5.2146494.002636.3230314.005272.6456355.005272.967385v29.933814c.07997.0405925.677546.0260647 1.142865-.1815983.214424-.095713.34756-.2136451.34756-.3080763v-32.3685134c0-3.974226 1.367834-7.4664687 3.954987-10.0998581 3.556457-3.6191479 9.019005-4.8305156 13.916492-3.0863171 5.014806 1.7865003 8.650793 6.3089396 9.263308 11.5218799.100621.855435.097985 1.7232613.095788 2.5628865l-.000879.3905433zm.263197.414044c-.162575 0-.297469-.02051-.400288-.061102-.227606-.088877-.252212-.25552-.252212-.323459l.000879-100.8490298c.002197-.8285157.004833-1.6852325-.093152-2.5184484-.595818-5.0723618-4.132502-9.4721688-9.010656-11.2095307-4.751169-1.6920692-10.051141-.518303-13.500825 2.9923132-2.51685 2.5611773-3.847335 5.9632618-3.847335 9.8383565v32.3685134c0 .6101704-1.070365.8742357-1.616532.8742357-.162575 0-.297469-.0209372-.400727-.0611024-.227167-.0893037-.251773-.2559469-.251773-.3234587v-29.933814c0-.3208949-.002636-.6422171-.005273-.9643939-.01406-1.7493261-.02856-3.5584727.385349-5.3030985 1.18241-4.9851946 5.187927-9.1064085 10.452748-10.7540394 5.34523-1.6732684 11.153142-.5823966 15.156462 2.8461799 3.16979 2.7154291 4.991958 6.6546174 4.999867 10.807878l.000439 1.5767007-.000439 100.1230634c0 .610171-1.070365.874236-1.616532.874236z" mask="url(#a)"/><path d="m170.01209 146.671867c2.000023 3.571662 5.477249 6.177688 9.510558 7.01126 4.008575.828476 8.321631.007644 11.773271-2.172467 3.178288-2.007282 5.526716-5.238806 6.345062-8.905588.320686-1.437412.343288-2.876099.343288-4.335168v-12.165987-16.364421-6.283849-2.059088c0-.362219.035395-.745246 0-1.106192-.004691-.046286 0-.094695 0-.141405 0-.3384399-1.824755-.067943-1.824755.486639v7.536543 15.590298 13.481528c0 .8892.001706 1.777975 0 2.667175-.005117 3.15891-1.088285 6.285123-3.117307 8.725115-2.265698 2.725775-5.511791 4.472327-9.087951 4.570844-.342862.009767-.718985.003822-1.133915-.021657-.560348-.033971-1.118564-.101065-1.669529-.208924-.999159-.196184-1.982539-.500228-2.912188-.915103-1.792771-.7996-3.407289-2.00346-4.704532-3.469748-.653739-.739301-1.216219-1.546545-1.697674-2.406445-.266528-.475599-1.997038.17835-1.824328.48664" mask="url(#a)"/><path d="m170.386067 146.488064c1.980559 3.529944 5.343342 6.016211 9.23377 6.825429 3.889586.809218 8.07371.03247 11.478991-2.132472 3.139355-1.995002 5.391309-5.175789 6.178567-8.726395.308845-1.39199.334091-2.811389.334091-4.264101v-36.616788c0-.121025.003787-.244579.007994-.368977.007627-.237831.015148-.483675-.007153-.711386-.003366-.032892-.002945-.067048-.002103-.101627-.18598-.058192-.820079.005061-1.215181.220121-.155684.084759-.210805.161928-.210805.206205v39.002273c-.00547 3.236449-1.112933 6.355669-3.118737 8.783744-2.339054 2.83163-5.658077 4.510789-9.105435 4.606512-.35597.009698-.73887.002108-1.135655-.021928-.579398-.035-1.141966-.106265-1.671714-.210844-1.021206-.201566-2.001176-.511506-2.913823-.920965-1.766808-.793615-3.393921-2.001327-4.705457-3.493257-.633257-.720663-1.20466-1.535363-1.698222-2.422171-.019356-.035422-.105192-.075482-.285702-.070422-.456534.011807-1.040561.276205-1.163426.417049zm12.29949 7.511936c-1.054446 0-2.108051-.105843-3.141038-.320482-4.013292-.834941-7.479164-3.40639-9.508952-7.054406-.051754-.092771-.046705-.203253.013044-.304036.19692-.330181 1.046872-.624519 1.54885-.624097.347975.005482.49861.145903.563409.262711.480518.863194 1.036353 1.656387 1.652359 2.35681 1.276191 1.45229 2.859123 2.627533 4.577963 3.39922.88656.398073 1.840022.699579 2.833457.895664.513758.101205 1.059495.170362 1.622484.204518.386686.023615.757383.031205 1.102414.021085 3.340062-.092772 6.558101-1.722171 8.828569-4.47115 1.951104-2.361448 3.028272-5.396331 3.033321-8.545913l.000421-1.765183-.000421-37.236668c0-.570964 1.054447-.818073 1.59261-.818073.140116 0 .255827.015602.344189.046386.212909.073795.236051.226446.236051.288434l-.001262.052711c-.000421.023192-.001683.046807.00042.069156.024826.251748.016516.510242.008416.760302-.003787.119759-.007574.239519-.007574.356748v36.616788c0 1.47464-.026509 2.916388-.343347 4.345486-.808297 3.646751-3.120421 6.912719-6.342247 8.960432-2.581837 1.641207-5.602115 2.503557-8.613136 2.503557z" mask="url(#a)"/><path d="m346.621087 99.6262979 6.182429-5.1727061c.109393-.0912805.30698-.3664018.117873-.4960713-2.398177-1.6443294-4.267618-3.9651584-5.336961-6.6813943-.244651-.621902-2.036076-.076778-1.813473.4892467 1.097751 2.790028 2.998145 5.2093889 5.464587 6.9002116.039433-.1654993.078441-.3305721.117874-.4956448-2.061092 1.7240931-4.122185 3.4481863-6.182853 5.172706-.297228.2486755-.183594.5472567.167906.6295798.41807.0981055.958254-.0746453 1.282618-.3459276" mask="url(#a)"/><path d="m350.634852 94.6883071-6.120786 4.6306854c-.079277.0601011-.119827.1226891-.108437.167454.010479.0393766.070165.0957473.205484.1243471.359484.0762662.877978-.0522257 1.203746-.298433l6.64338-5.0265236c.071988-.0542982.142153-.1637237.138508-.1997843-2.635756-1.6256309-4.645035-3.8999391-5.805497-6.5659405-.039639-.0924314-.174046-.128492-.280205-.1425847-.405046-.0563707-1.051569.1322224-1.253864.3639225-.060597.0696343-.045562.104037-.039183.1185442 1.118544 2.5710832 2.979292 4.7633223 5.397718 6.3649127l.284306-.2147059c.067432-.0509823.162201-.0567852.235555-.0149217.073811.0418635.11026.1218602.089757.1985409l-.126662.4820522c-.015947.0584431-.061508.1069384-.123473.1284919-.061964.021968-.131674.0145072-.186348-.019481-.051485-.0319158-.10297-.064246-.153999-.0965762m-5.799119 5.3116929c-.107526 0-.213685-.0099478-.316199-.0319158-.267448-.0563706-.45653-.2047581-.506648-.3970816-.048296-.1861062.04055-.3809166.2433-.534278l6.040141-4.5697553c-2.440751-1.6376511-4.319724-3.8647074-5.453759-6.4714368-.068799-.1591643-.034172-.3299343.098413-.4820522.292963-.3369806 1.071161-.574898 1.629294-.4994608.382264.0513968.535352.2304566.596861.3709688 1.130391 2.5971961 3.08773 4.8134756 5.660155 6.4080198.105703.0654894.166756.1633091.172224.276465.01139.2167784-.180426.4207076-.283396.4986318l-6.64338 5.0265236c-.292507.2213378-.775463.4053715-1.237006.4053715" mask="url(#a)"/></g><path d="m215.067639 165.932414h18.864722v-18.864828h-18.864722zm20.398542 3.067586h-21.932362c-.847215 0-1.533819-.686592-1.533819-1.533793v-21.932414c0-.847201.686604-1.533793 1.533819-1.533793h21.932362c.847215 0 1.533819.686592 1.533819 1.533793v21.932414c0 .847201-.686604 1.533793-1.533819 1.533793z" fill="#6eb2fc" mask="url(#a)"/><path d="m244.067639 79.9323613h18.865155v-18.8647226h-18.865155zm20.398542 3.0676387h-21.932362c-.847215 0-1.533819-.6866039-1.533819-1.5338194v-21.9323612c0-.8476485.686604-1.5338194 1.533819-1.5338194h21.932362c.847215 0 1.533819.6861709 1.533819 1.5338194v21.9323612c0 .8472155-.686604 1.5338194-1.533819 1.5338194z" fill="#6eb2fc" mask="url(#a)"/><path d="m211 76.0425566-28-.0425566 14.056432 22z" fill="#03243b" mask="url(#a)"/><path d="m212.662923 76.041077c-3.289225-.0046107-6.578451-.0092213-9.867677-.013832l-15.662013-.021796c-1.197102-.0016766-2.394205-.0037724-3.590875-.005449-.167007 0-1.735669.2942456-1.522486.604 1.644181 2.3887548 3.288363 4.7766714 4.932544 7.1650071 2.623354 3.810523 5.247139 7.6214652 7.870061 11.431569.605456.8798029 1.210912 1.7591866 1.816799 2.6385703.287408.4178958 1.610521-.0733519 1.833197-.399034 1.637709-2.3933656 3.274985-4.7867311 4.912693-7.1800967 2.598756-3.7983675 5.197944-7.5967351 7.796699-11.3955218.597688-.8726772 1.194513-1.7457736 1.79177-2.6184509.185563-.270773-.666735-.1814934-.737508-.1693379-.34653.0599389-.870856.177721-1.082743.4870561-1.637277 2.3933656-3.274985 4.7867312-4.912693 7.1796776-2.598756 3.7983675-5.197944 7.5971542-7.797131 11.3955218-.596825.8730964-1.194513 1.7461928-1.791769 2.61887l1.833197-.399034c-1.644181-2.3883357-3.288362-4.7766714-4.932544-7.1650071-2.623353-3.810523-5.246707-7.621046-7.870061-11.431569-.605456-.8793837-1.210912-1.7591866-1.816367-2.6385703-.507496.2011936-1.014991.4023872-1.522486.604 3.289225.0041915 6.578451.0092214 9.867245.0138321 5.221247.0071256 10.44163.0146703 15.662445.0217959 1.197102.0016766 2.394204.0033533 3.591306.0050299.434565.0008383.939903-.0997585 1.30542-.3395142.268852-.1764636.273599-.3872977-.107023-.3877169" fill="#03243b" mask="url(#a)"/><path d="m294 109.957443 28 .042557-14.056432-22z" fill="#03243b" mask="url(#a)"/><path d="m293.337077 109.958922c3.289225.004611 6.578451.009222 9.867677.013833l15.662013.022215c1.197102.001676 2.394205.003353 3.590875.00503.167007.000419 1.735669-.294247 1.522486-.604002-1.644181-2.388343-3.288363-4.776687-4.932544-7.16503-2.623354-3.8105344-5.247139-7.6210693-7.870061-11.4316041-.605456-.8793864-1.210912-1.759192-1.816799-2.6385784-.287408-.4178972-1.610521.0737712-1.833197.3990352-1.637709 2.393373-3.274985 4.786746-4.912262 7.1801189-2.599187 3.7983794-5.198375 7.5971774-7.79713 11.3955574-.597257.87268-1.194513 1.745779-1.79177 2.618459-.185563.270774.666735.181494.737508.169757.346962-.059939.870856-.177721 1.082743-.487057 1.637277-2.393373 3.274985-4.786746 4.912693-7.180119 2.598756-3.7983795 5.197944-7.5967589 7.797131-11.3955573.596825-.8730991 1.194513-1.7457791 1.791769-2.6188782l-1.833197.3994544c1.644181 2.3879239 3.288362 4.7766862 4.932544 7.1650293 2.623353 3.8105348 5.246707 7.6206508 7.870061 11.4316048.605456.879386 1.210912 1.758773 1.816367 2.638578.507496-.201613 1.014991-.402808 1.522486-.604002-3.289225-.00461-6.578451-.009221-9.867245-.013832-5.220815-.007545-10.44163-.015089-15.662445-.022215l-3.591306-.00503c-.434133-.000419-.939903.099759-1.30542.339935-.268852.176464-.273599.386879.107023.387298" fill="#03243b" mask="url(#a)"/><path d="m281.182596 26.0015439c-6.074287-.1007459-11.080319 4.7415712-11.181065 10.8158542-.100312 6.0742831 4.741574 11.0803122 10.816295 11.1810581 6.073852.1007459 11.079884-4.7420054 11.18063-10.8158542.100746-6.0747173-4.741574-11.0803122-10.81586-11.1810581" fill="#6eb2fc" mask="url(#a)"/><path d="m281.250608 26.0005726c-4.727736 0-9.431595 2.4460825-11.373628 6.9168421-1.847779 4.2535449-.704594 9.3209101 2.76015 12.3833448 3.636495 3.2128464 9.074271 3.4619922 13.287595 1.2549722 4.11907-2.157443 6.628716-6.6176991 5.971039-11.2918088-.647205-4.5942823-4.335224-8.3260074-8.884508-9.096973-.581856-.098734-1.170833-.1529326-1.760648-.1663773-.418484-.0096633-.916978.1029355-1.267181.3407374-.266841.1806622-.260557.3798108.103888.3882137 4.235107.0962131 8.044189 2.9019394 9.486471 6.8857514 1.456525 4.021625.304123 8.6612829-2.91682 11.4808739-1.437674 1.2583334-3.195389 2.0540874-5.106424 2.1734085-2.050528.1273038-4.127448-.4621592-5.858773-1.5553757-3.575335-2.2574374-5.511503-6.5992127-4.755384-10.7796524.705851-3.9002032 3.783111-7.5663858 7.829292-8.1281192.438591-.060921.879277-.0768865 1.321638-.0768865.421835 0 .911951-.0995743 1.267181-.3407374.260557-.1764607.266003-.3882137-.103888-.3882137" fill="#03243b" mask="url(#a)"/><path d="m280.515109 26.7455441c.017212.0021583.037006.0034533.061534.0043166.4544-.0004316.900195-.1191393 1.192371-.3172733.024957-.0168349.045182-.0328064.060672-.0466197-.018503-.0021583-.041309-.0021583-.062394-.00259-.039157 0-.077884 0-.116612.0004317-.392437.0120866-.804237.1320893-1.076189.3164099-.024527.016835-.043891.0319432-.059382.0453248m.0568.3867713c-.534006 0-.944086.0237415-1.329207.0772679-4.30906.5982868-7.226088 4.5756422-7.880579 8.1955795-.762068 4.2134757 1.166122 8.5853723 4.798314 10.8792367 1.79996 1.1365723 3.89769 1.6929876 5.905486 1.5686683 1.855469-.115686 3.630041-.8715303 5.131379-2.1859483 3.241467-2.8381931 4.424372-7.4941249 2.942406-11.586303-1.469056-4.0589399-5.314248-6.850945-9.567799-6.9485011m-.313691-.6690798c-4.505278.4791474-8.33584 3.0855368-9.997242 6.911378-1.855469 4.2717505-.709571 9.4133046 2.786645 12.5031581 3.526768 3.11748 8.925787 3.6259806 13.434507 1.2639132 4.254842-2.2295464 6.679602-6.8129585 6.033286-11.4054356-.651049-4.6226936-4.339181-8.3997567-8.969247-9.1849542-.421697-.0716562-.855013-.120866-1.293922-.1476292-.023237.1208661-.116182.2417321-.269801.3457632-.053357.0362598-.110588.0703613-.1704.1018728 3.906296.555552 7.306984 3.2888507 8.686107 7.0987203 1.534893 4.2393757.308958 9.0640882-3.050422 12.0050174-1.565013 1.3705344-3.418331 2.1587535-5.35857 2.2796195-2.088263.1303626-4.264738-.4476359-6.131395-1.6265113-3.762574-2.3763123-5.760473-6.9057664-4.970866-11.2716197.791758-4.3783715 4.241932-7.9555741 8.203737-8.5055145.276685-.0388497.564558-.0625913.896752-.0738146.008176-.0794262.048194-.183889.170831-.2939634m.285291 22.5367644c-2.860658 0-5.629231-.9630432-7.748045-2.8351715-3.618423-3.1982012-4.804339-8.5206227-2.884325-12.9425924 1.890323-4.3516084 6.484674-7.1755566 11.729644-7.2208813.043461-.0017267.087352-.0017267.130812-.0004317.016352 0 .032704.0004317.047764.0008633.607589.0159716 1.209583.0742463 1.790063.1726658 4.79229.8123923 8.609513 4.722408 9.283368 9.5082707.668692 4.7521929-1.836535 9.4935942-6.234237 11.7978186-1.945833 1.0191595-4.05432 1.5194585-6.115044 1.5194585" fill="#03243b" mask="url(#a)"/><path d="m170.182375 123.001544c-6.074167-.100746-11.0801 4.741571-11.180844 10.815854-.10031 6.074717 4.741914 11.080312 10.816081 11.181058 6.074167.100746 11.079666-4.741571 11.180844-10.815854.100744-6.074283-4.741914-11.080312-10.816081-11.181058" fill="#6eb2fc" mask="url(#a)"/><path d="m170.250699 123.000526c-4.727771 0-9.431665 2.446208-11.373712 6.917197-1.847794 4.253763-.7046 9.321388 2.76017 12.38398 3.625211 3.203347 9.021975 3.454187 13.233235 1.283608 4.171464-2.150411 6.708357-6.67182 6.016325-11.383985-.671087-4.567627-4.348242-8.266771-8.874938-9.034414-.58228-.098739-1.171261-.152941-1.76108-.166386-.418487-.009244-.916985.103361-1.267191.340755-.266424.180671-.260559.37983.103889.388233 4.235138.096218 8.044248 2.902089 9.48696 6.886105 1.463657 4.04284.289883 8.706685-2.962921 11.521379-1.447738 1.252515-3.210913 2.030243-5.124894 2.137385-2.049287.115126-4.123289-.490334-5.846249-1.59201-3.562794-2.278561-5.473842-6.633164-4.692164-10.810457.724707-3.875193 3.794449-7.50669 7.81762-8.065511.439014-.060924.879284-.076891 1.321648-.076891.421838 0 .911958-.099579 1.26719-.340334.26056-.17689.266005-.388654-.103888-.388654" fill="#03243b" mask="url(#a)"/><path d="m169.514792 122.745772c.016781.002159.037005.003455.061532.004318.454388-.000432.90017-.119177 1.192768-.317374.024957-.017273.04475-.032817.060241-.046635-.018072-.002159-.041308-.002591-.062823-.003023-.038296 0-.075731.000432-.114027.000432-.393287.012091-.805936.132132-1.078311.316943-.024527.016408-.04389.031953-.05938.045339m.056798.386895c-.534852 0-.94492.023749-1.329171.076861-4.27839.594592-7.197489 4.54256-7.869174 8.134724-.787434 4.2118 1.115746 8.597184 4.73536 10.913371 1.794747 1.148595 3.888116 1.721596 5.891984 1.606305 1.865314-.104496 3.645861-.84806 5.150161-2.150375 3.277962-2.838237 4.479337-7.512065 2.988806-11.630596-1.469446-4.059805-5.314102-6.852703-9.567966-6.95029m-.313682-.669725c-4.505154.479732-8.335611 3.086954-9.996967 6.914018-1.855418 4.273116-.709551 9.416313 2.786569 12.506723 3.500423 3.095159 8.877348 3.614185 13.37949 1.292816 4.318407-2.227237 6.761173-6.848817 6.0783-11.501055-.674267-4.591786-4.358425-8.343716-8.959534-9.123983-.421255-.071679-.854559-.120904-1.293887-.147676-.023235.120904-.115748.241809-.269362.345873-.053787.036272-.110585.070384-.170826.101906 3.906188.555729 7.306783 3.28947 8.686298 7.100557 1.543887 4.267071.299053 9.110165-3.0981 12.051171-1.568843 1.358018-3.428134 2.133535-5.378216 2.242781-2.082181.115723-4.256445-.474982-6.117887-1.665893-3.749992-2.399526-5.720728-6.94295-4.904895-11.306312.812391-4.345659 4.257306-7.896369 8.191463-8.443031.276247-.03843.564112-.062179.896728-.073406.008175-.079452.048193-.183948.170826-.294489m.285283 22.537058c-2.864452 0-5.6351-.961192-7.747832-2.829169-3.618323-3.199223-4.804207-8.522914-2.884245-12.946297 1.890271-4.353431 6.486647-7.178713 11.732333-7.223621.043029-.000902.084767-.001295.127366-.000432.016782 0 .033563.000432.049484.001296.607572.015976 1.20955.07427 1.789153.172721 4.761607.80747 8.574852 4.691532 9.272785 9.445244.70697 4.814164-1.817121 9.595079-6.280967 11.897017-1.930289.995304-4.018064 1.483241-6.058077 1.483241" fill="#03243b" mask="url(#a)"/><path d="m253.182595 113.001544c-6.074286-.100746-11.080318 4.741571-11.181064 10.815854-.100312 6.074283 4.742008 11.080312 10.816295 11.181058 6.073852.100746 11.079884-4.742005 11.18063-10.815854.100746-6.074283-4.741574-11.080312-10.815861-11.181058" fill="#6eb2fc" mask="url(#a)"/><path d="m254.250551 113.000526c-4.727714 0-9.431551 2.446087-11.373575 6.916857-1.847771 4.253554-.704591 9.32093 2.760138 12.383371 3.636477 3.212853 9.074228 3.461999 13.287532 1.254975 4.119051-2.157448 6.629104-6.617714 5.971011-11.291833-.647201-4.594292-4.335204-8.326025-8.884466-9.096993-.581853-.098734-1.170828-.152933-1.76064-.166377-.418482-.009243-.916974.103356-1.267175.340738-.26684.180662-.260556.379811.103888.388214 4.235086.096214 8.044151 2.901946 9.486426 6.885766 1.456518 4.021634.304122 8.661302-2.916806 11.480899-1.437667 1.258336-3.195375 2.054092-5.1064 2.173413-2.050519.127724-4.127429-.46216-5.858746-1.555379-3.575318-2.257442-5.511477-6.599227-4.755362-10.779675.705848-3.900212 3.783093-7.566402 7.829256-8.128137.438589-.060921.879272-.076887 1.321632-.076887.421833 0 .911947-.099574 1.267174-.340318.260557-.176881.266002-.388634-.103887-.388634" fill="#03243b" mask="url(#a)"/><path d="m252.51505 113.745665c.016781.002158.037006.003453.061533.004316.454398-.000431.90019-.119141 1.192365-.317277.025387-.016835.045181-.032807.060672-.046621-.018503-.00259-.040878-.002158-.062394-.003021-.038296 0-.076593.000431-.11446.000431-.393295.012087-.805954.132091-1.078335.316846-.024527.016404-.043891.031944-.059381.045326m.056799.386776c-.534864 0-.944941.023742-1.3292.076838-4.309038.598295-7.22605 4.576138-7.880539 8.195694-.762063 4.213534 1.166117 8.585924 4.79829 10.87982 1.799951 1.136588 3.896809 1.693443 5.905456 1.56869 1.855459-.115687 3.630021-.871542 5.131343-2.18641 3.24146-2.837801 4.424358-7.49423 2.9424-11.586465-1.469049-4.058997-5.313791-6.851041-9.56775-6.948167m-.313689-.66952c-4.505255.479585-8.335797 3.086011-9.997191 6.911906-1.855459 4.27181-.709567 9.413436 2.786632 12.502901 3.526749 3.117524 8.92574 3.626031 13.434437 1.263931 4.25525-2.229578 6.679567-6.813054 6.033255-11.405163-.651046-4.62319-4.339159-8.399874-8.969201-9.185083-.422126-.071657-.855439-.120868-1.293916-.147631-.023236.120868-.116181.241735-.269799.345768-.053357.03626-.110587.070362-.170399.101874 3.905845.55556 7.306946 3.288465 8.686062 7.098388 1.534885 4.239866.308956 9.064646-3.050406 12.005185-1.565006 1.370985-3.418314 2.159215-5.358542 2.280083-2.086962.12907-4.264286-.447642-6.131364-1.626534-3.762554-2.376777-5.760443-6.906295-4.97084-11.271777.791754-4.378865 4.24191-7.956117 8.203694-8.506065.276254-.038419.564125-.062161.896748-.073384.008176-.079427.048194-.183892.17083-.294399m.285289 22.537079c-2.860643 0-5.629201-.962625-7.748005-2.835211-3.618404-3.198246-4.804314-8.52031-2.88431-12.942773 1.890314-4.352101 6.486362-7.176089 11.732166-7.220983.042599-.001295.085199-.001295.128229-.000431.016352 0 .032703.000431.048194.001295.606725.015972 1.208717.073815 1.789623.172668 4.792266.812404 8.609469 4.722474 9.283321 9.508404.669119 4.752259-1.836096 9.493295-6.234205 11.797551-1.945823 1.019606-4.054299 1.51948-6.115013 1.51948" fill="#03243b" mask="url(#a)"/><path d="m333.990384 48.8912459 6.78609-4.3236976c.663326-.4228774-.317769-.7448458-.766858-.4587942l-6.78609 4.3236976c-.663326.4228774.317769.7448458.766858.4587942" fill="#7bb1fd" mask="url(#a)"/><path d="m332.029974 47.6302298c.294366-2.967397.962954-5.8193076 1.967792-8.5575871.054411-.1474886-.90228-.0700339-1.012276.2291176-1.01619 2.7688903-1.687909 5.6565136-1.985407 8.655449-.010569.1076018.995835.0171607 1.029891-.3269795" fill="#7bb1fd" mask="url(#a)"/><path d="m328.994524 47.6394225c.068647-2.3331148-.50743-4.5517021-1.770441-6.5601028-.163268-.2584548-1.297334.1869301-1.220338.3093561 1.263474 2.0088395 1.839552 4.2274267 1.770441 6.5601027-.004174.1329573 1.211062-.0008776 1.220338-.309356" fill="#7bb1fd" mask="url(#a)"/><path d="m101.799333 147.63125c-3.7760842-4.955421-4.7836299-17.090035 5.0352-21.982077 14.92061-7.433982 33.221617 12.045713 23.388882 22.976138-4.32305 4.806121.122203 10.164356-1.099831 12.330704-1.222033 2.166349-3.073204 1.203763-4.434718 1.989825-2.457552 1.418144-3.921464 4.927347-7.952489 5.843568-4.420812 1.004696-7.053241-3.69551-8.485549-4.131927-4.267847-1.298618-16.4388813 2.529178-9.5141644 19.946313-31.3792962 3.334807-41.7366636-15.477927-41.7366636-15.477927 10.0564943-5.675552 22.2983219.617194 44.799333-21.494617" fill="#fff" mask="url(#a)"/><path d="m102.573892 147.150451c-2.351764-3.118427-3.0554742-7.578205-2.344997-11.425404.415714-2.251675 1.335105-4.417914 2.822455-6.162525 1.665392-1.954356 3.902127-3.349105 6.32959-4.121022 4.460359-1.418671 9.267498-.548929 13.287615 1.740765 3.781599 2.153851 7.141141 5.603344 8.707574 9.714114 1.466628 3.849335 1.13338 7.902009-1.642555 11.074688-1.129575 1.291371-1.896298 2.78309-2.119168 4.501215-.183117 1.409273.006767 2.823672.313794 4.20176.137021.614715.299416 1.223021.442357 1.836027.117144.502793.211874.92015.224561 1.361002.002961.103377.000846.205901-.004651.308425-.011419.197785.016493-.004699-.020723.132853-.011841.042718-.086695.263999-.054131.188387.040175-.091844-.015648.020505-.021991.031612-.065127.11363-.132792.230251-.211875.335338-.351009.468618-.822969.67452-1.383316.770208-.566267.096543-1.148182.095262-1.707682.240077-.573457.148232-1.072482.458793-1.540213.816344-.976061.746714-1.780422 1.675407-2.638915 2.549848-1.774925 1.807406-4.222688 3.471279-6.850184 2.629304-2.024014-.648889-3.235632-2.424684-4.884954-3.635744-.929118-.682637-2.297209-.714675-3.401832-.630093-2.938331.225979-5.811111 1.642941-7.6511625 3.992868-2.8300673 3.613531-2.8152657 8.458199-1.7948006 12.749668.3742692 1.572883.8889423 3.106893 1.4818524 4.608437.2795389-.370367.5590778-.741161.8386168-1.111954-5.2697952.554054-10.6338978.590792-15.8778959-.243921-3.9896675-.63522-7.9531151-1.753581-11.6040374-3.458037-1.4924249-.69716-2.9425595-1.487874-4.3343335-2.37214-.6352005-.404114-1.2581367-.827451-1.86754-1.270866-.6199759-.450677-.9325013-.692462-1.5000372-1.160226-1.6252165-1.338788-3.137095-2.828798-4.4612045-4.47302-.1213732-.150368-.239786-.302872-.3586218-.454949.0858493.109786.0592064.079029-.0376384-.050835-.0499025-.067067-.0998051-.134135-.1492848-.201202-.1602802-.218717-.3167544-.440425-.4681537-.665122-.156897-.232814-.2854595-.506638-.4584269-.726637-.0071894-.009398-.0122642-.021786-.0181848-.032038-.1040342.400696-.2080683.801393-.3121025 1.202089 1.8857248-1.05941 3.8856334-1.701038 6.1304029-2.203403 2.3382311-.523298 4.7115632-.866325 7.0633271-1.318711 2.8440232-.547647 5.6559057-1.252924 8.3836305-2.241422 3.5100955-1.272148 6.8607566-2.959943 10.0185738-4.960008 4.9166711-3.11501 9.3846421-6.921627 13.540088-11.000786.804784-.789432-.426287-2.031676-1.229802-1.242672-6.3972552 6.279146-13.6398932 12.023886-22.0603163 15.236721-2.7294164 1.041469-5.5501799 1.799717-8.4094276 2.374703-2.3800985.478444-4.7843025.827451-7.1605948 1.325973-2.4832869.521161-4.9272437 1.26104-7.1538284 2.512256-.4165595.234095-.5370869.793703-.3121024 1.202089.3928769.713394.8961316 1.372535 1.3905053 2.01459 1.2323395 1.599795 2.6418754 3.057767 4.1626349 4.378613 2.3128569 2.008182 4.8748037 3.717763 7.6008369 5.09756 3.6187816 1.832183 7.4976486 3.113728 11.4695542 3.886073 5.1623778 1.004732 10.4550098 1.201235 15.6913956.8125.7751813-.057243 1.5495169-.128582 2.3225837-.209746.4977569-.052544 1.0690989-.529279.8386168-1.112382-1.1029313-2.79505-1.9859529-5.761401-2.0582693-8.790547-.0473651-1.986822.2884199-4.007819 1.1820141-5.680236.2021477-.378483.4296695-.741588.6791823-1.090168.1281397-.178989.0947303-.134562.2689664-.343454.1382893-.16532.2816534-.32594.4305156-.481007.595447-.620268.972677-.919295 1.64763-1.342205.312103-.195649.634778-.373357.966334-.53355.075699-.036738.152245-.071767.22879-.106796.058361-.026912.24613-.105514.087541-.039728.173813-.071766.348895-.139688.526092-.202056.630971-.222989 1.281396-.381047 1.942393-.479726-.246129.036738.184809-.01965.263892-.026912.159857-.014524.319715-.024777.479995-.03033.274041-.009825.548082-.006835.821278.011961.132368.008971.263891.023068.395414.038019-.283345-.032466.095576.019223.188192.038019.114607.023923.227099.058097.341706.082447.033409.007262.216526.07262.078659.017087-.129831-.052116.080352.046135.123065.073475.064282.041437.126871.084155.189461.128155.109532.07732-.067665-.06066.083312.067922.17339.147804.341283.300735.507483.45623.373424.349434.739235.706986 1.119002 1.048731.917277.825315 1.90391 1.566048 3.044479 2.044065 2.807231 1.17774 5.793772.075611 8.00767-1.81595.97902-.836422 1.807065-1.827484 2.731531-2.721148.379767-.367376.773912-.716811 1.224304-.994052.437705-.269125.910088-.321241 1.40573-.374211 1.481429-.156776 2.780165-.647608 3.519399-2.059871.49818-.950479.317178-2.059443.098537-3.062466-.584029-2.674158-1.482698-5.398296.011841-7.960106.673685-1.154672 1.687383-2.059443 2.361914-3.224795.53328-.922713.943919-1.934706 1.193432-2.973612.507061-2.107288.389494-4.326925-.187769-6.406446-1.258982-4.535389-4.477275-8.391986-8.26564-11.033251-4.033227-2.811711-8.998109-4.266265-13.885177-3.539628-5.252879.780888-9.930187 4.174847-11.9508178 9.175864-1.7047223 4.220984-1.4733943 9.251049.3569302 13.389159.3577756.808655.7929436 1.581855 1.3249556 2.287132.284191.376774.749384.575414 1.190049.314833.367503-.216582.598408-.821898.312102-1.20209" fill="#03243b" mask="url(#a)"/><path d="m56.8168399 169s10.4470232 18.769328 42.0979459 15.442216c5.6534382 15.452401 11.4658402 26.85243 26.0705912 39.238285 1.356298 1.150485 5.304906 4.363016 11.23632 7.03574 19.835275 8.936522 20.405252-1.608387 46.28245 1.520966 16.478746 1.993297 20.885971 8.771015 20.469433 11.409365h-11.565724c-2.095016-1.806147-5.007805-3.042356-7.951197-3.042356-5.666189 0-14.221791 5.610258-21.943892 10.290284-20.910623 12.672309-45.255132 8.871593-54.143539 5.23808-16.109387-6.585052-33.7259609-21.95088-33.7259609-21.95088 0 12.031926 21.3352364 26.296497 21.3352364 26.296497-9.2505396.184179-13.9463658 1.493381-20.5501902 4.093536-15.2219065 5.99432-14.6349282 13.479899-35.9085341 20.90946-14.1567598 4.943563-19.4259631 3.232477-19.4259631 3.232477-5.2262743-10.70872-10.0938161-25.468114-10.0938161-42.309499 0-31.890205 26.33284-62.705039 47.8168399-77.404171" fill="#fff" mask="url(#a)"/><path d="m56.0017987 169.350608c1.3649722 2.450424 3.5292638 4.60071 5.6373733 6.403667 5.4279669 4.643222 12.1532319 7.554058 19.1398292 8.898305 5.9740409 1.149965 12.0953472 1.222236 18.1345083.600702l-.8440099-.641939c3.5599084 9.717521 7.7978344 19.129377 14.2328244 27.315596 6.419668 8.166663 14.48224 15.582979 24.071946 19.804902 3.853588 1.697101 7.879128 3.098315 12.098326 3.471576 3.118113.275906 6.205154-.147094 9.261551-.745671 3.47521-.680626 6.926159-1.415668 10.461807-1.716657 5.459889-.465087 11.032993-.180253 16.440956.673824 4.617155.729091 9.390089 1.943674 13.346252 4.528013 1.787616 1.16782 3.725476 2.8764 4.22686 4.904674.074484.302265.026814.050165.051926.340526.008087.094378-.028091.526305.008938.267404.281336-.214263.562673-.428102.844435-.642365h-11.58162c.206427.08545.412854.170901.618855.256351-2.014472-1.693275-4.420943-2.847066-7.043205-3.193544-2.043415-.269954-4.050226.070146-5.99745.699757-4.928711 1.593371-9.443292 4.430659-13.839975 7.10555-4.758888 2.89553-9.447548 5.667349-14.727824 7.526849-4.758462 1.675845-9.727608 2.761616-14.746551 3.269216-7.888918.79796-16.05449.362207-23.73698-1.670744-3.460313-.915721-6.70441-2.350094-9.885089-3.979601-4.3762528-2.241687-8.5716162-4.830702-12.6397184-7.587642-5.2977263-3.590611-10.482237-7.443099-15.3092245-11.651418-.5520327-.481242-1.5015971-.178552-1.4947871.618133.0493722 5.538962 3.6995129 10.518458 7.2249461 14.486155 3.5147926 3.955794 7.5641674 7.435872 11.78975 10.610711.9129608.685727 1.8344341 1.365503 2.7835728 2.001066.1472655-.543311.2945309-1.086196.4417964-1.629507-3.6454588.079074-7.2968764.332874-10.879343 1.042834-3.001066.594325-5.9072181 1.543206-8.7610186 2.634503-5.0619313 1.935597-9.6054541 4.487201-13.8489129 7.85037-3.9838289 3.157833-7.8327354 6.352652-12.3217785 8.797974-6.5486315 3.567654-13.8914751 6.205559-21.2206988 7.599971-2.2392013.425976-4.535436.723139-6.8197533.632162-.8520967-.03401-1.1849337-.011479-1.9046618-.241472.1740797.13434.3485851.267829.5230904.402169-3.9221136-8.065908-6.8027284-16.643668-8.4498884-25.461623-1.78335928-9.547896-2.20344893-19.444821-.2251544-28.993142 3.6322645-17.530055 13.7259079-33.380439 25.7374074-46.404162 6.1323725-6.64939 12.9325471-12.745691 20.3983957-17.86973.9231758-.633437.048521-2.14986-.8835928-1.510046-12.6899422 8.708698-23.7412367 20.063803-32.4098952 32.752953-9.2126043 13.484559-15.97234478 29.359175-15.9060131 45.911866.03709465 9.203969 1.52549739 18.394335 4.2090488 27.19316 1.1772725 3.859715 2.59034 7.644609 4.206004 11.341926.3468825.793285.7031287 1.582318 1.0695899 2.3671.2932541.62706.5677808 1.684773 1.2666533 1.956428.1762078.068445.3809324.090977.5660783.122861 1.5032995.260177 3.0542688.229993 4.5694858.111383 3.2930432-.258051 6.5477803-.971837 9.7207979-1.868002 7.6995154-2.174517 15.3288031-5.281335 21.8799884-9.930084 4.4405221-3.151031 8.3571026-6.980563 13.0921557-9.718372 5.9795739-3.457546 12.9610638-5.828897 19.8314662-6.580944 2.1791885-.238496 4.3698687-.343927 6.560549-.391116.8972127-.019556 1.1534376-1.153366.4417964-1.629506-2.4205165-1.621429-4.7222844-3.443093-6.9431838-5.324274-4.2451613-3.595287-8.4034955-7.602946-11.3236932-12.376257-1.4569066-2.381128-2.638861-5.052617-2.6639727-7.887355-.4984043.206186-.9963829.412372-1.4943615.618558 5.2287754 4.558197 10.8623181 8.727403 16.6290807 12.57394 7.9548891 5.305568 16.4056288 10.184309 25.8991438 11.976214 10.28943 1.941974 21.135149 1.600598 31.243689-1.155492 6.2026-1.691574 11.859552-4.421306 17.3254-7.763644 2.826135-1.728135 5.648439-3.4686 8.560124-5.050492 2.489468-1.35275 5.067039-2.651083 7.809752-3.406532 2.772932-.76395 5.567997-.552238 8.151527.775855.671633.345627 1.317728.746095 1.9136 1.210332.365184.284409.586508.526731 1.050862.577321.359226.039112.74484 0 1.106194 0h9.631843.805703c.343052 0 .790382-.268679.84401-.64194.278358-1.947925-.917642-3.769589-2.199618-5.12659-2.468186-2.612822-5.928074-4.21512-9.289642-5.328099-5.571402-1.844195-11.590133-2.50484-17.435636-2.660436-4.343054-.115209-8.661848.240196-12.935101 1.013074-3.07555.556915-6.126414 1.356576-9.24708 1.629507-3.505854.306515-6.940204-.18663-10.293686-1.223087-5.165357-1.596346-10.107689-4.076104-14.48309-7.246266-4.035755-2.924014-7.699942-6.486566-11.044485-10.165178-7.106197-7.81721-12.023843-17.016078-15.823377-26.810973-.496702-1.280478-.97723-2.566908-1.4496709-3.855889-.1221538-.332873-.4464783-.683177-.8444356-.64194-9.3151794.959084-19.0521509.286535-27.6522841-3.681587-4.6648253-2.151986-8.9751068-5.222669-12.2345258-9.217574-.47159-.578171-1.0619288-1.327242-1.5130889-2.137106-.5477765-.983741-2.0608653-.102881-1.511812.88256" fill="#03243b" mask="url(#a)"/><path d="m163.370766 355.299949c-3.881765-.956202-7.763101-1.912824-11.644437-2.868604-.54245-.133894-1.084901-.267787-1.627352-.401681-1.10294-.271155-1.573665 1.398724-.469866 1.670721 3.881336.956201 7.763101 1.912403 11.644437 2.869025.54245.133472 1.084901.266945 1.627352.400838 1.10337.271577 1.573665-1.398302.469866-1.670299" fill="#03243b" mask="url(#a)"/><path d="m120.661394 220.098429c-2.560444 1.245646-4.921624 3.052126-7.059541 4.890233-4.881342 4.195723-8.763789 9.489082-11.091972 15.451649-1.706392 4.369035-2.500879 9.048005-2.509881 13.721915-.0025683 1.116189 1.760817 1.117875 1.762531 0 .014999-7.578448 2.299472-14.92244 6.761287-21.111871 1.654968-2.296052 3.59962-4.411624 5.726824-6.310875.450381-.402705.909761-.795711 1.377712-1.178598.208692-.17078.419098-.339874.631219-.50686.102417-.080119.205264-.16066.30811-.239936.060851-.047228.121701-.094035.182552-.14042-.15127.115541.04671-.034999.061708-.045963.743921-.556619 1.50327-1.092153 2.284473-1.597327.791917-.512342 1.603545-1.020046 2.455027-1.434136 1.016893-.494632.124701-1.991177-.890049-1.497811" fill="#03243b" mask="url(#a)"/><path d="m119 218.585691c-1.620721.366928-3.155383 1.089454-4.597626 1.940099-.356109.223556-.71773.437961-1.069176.667618l-1.018303.751287c-.168304.126813-.340847.247524-.506184.378259l-.479476.415735-.958103.8306c-2.483439 2.307464-4.550569 5.061604-6.279395 8.006616-1.731794 2.951549-3.048974 6.142342-4.1406191 9.397195-.2564835.821013-.5265331 1.636796-.7724181 2.460859l-.6337898 2.504002c-.1008977.418786-.2217205.831471-.3069324 1.254179l-.245885 1.269868-.4930419 2.537992-1.4990507-.281951.5612961-2.579827.2806481-1.289478c.0962343-.428809.2289275-.849338.3421194-1.274225l.7054356-2.542786c.2700496-.837137.5651116-1.666429.8461836-2.498772 1.1921184-3.304096 2.6148602-6.537596 4.4594212-9.523572 1.84117-2.979003 4.027004-5.756675 6.635928-8.070676l1.006009-.831907.502793-.415736c.173815-.130734.354837-.251881.53162-.377822l1.066632-.748673c.368404-.229657.747406-.442754 1.120049-.664131 1.511769-.844545 3.115109-1.554869 4.825706-1.900444z" fill="#03243b" mask="url(#a)"/><path d="m69.97231 184c-3.2288253-1.307623-6.3431145-2.940174-9.2283317-4.942641-2.8806022-2.001634-5.5363278-4.381517-7.7439783-7.173807l1.2175222-.883552c1.9110316 2.79479 4.3154492 5.279649 7.0001234 7.432083 2.6876111 2.153683 5.6558983 3.983273 8.7823544 5.506681z" fill="#03243b" mask="url(#a)"/><path d="m100 187.024645c-3.6049731.81791-7.3337648 1.047222-10.9948229.956916l-.0051771-.255113c3.6239558-.185126 7.228066-.6989 10.5042946-1.726448z" fill="#03243b" mask="url(#a)"/><path d="m14.0642899 310.112952c7.7723341 5.713596 16.1856898 10.436015 25.0502603 14.187353 9.3034987 3.936061 19.0921063 6.694939 29.0645893 8.223182 6.1712629.945425 12.3976037 1.458545 18.6404678 1.476513 1.1396881.003412 2.2315009-1.013849 2.1785414-2.19873-.0529595-1.194287-.9570838-2.195728-2.1785414-2.199148-2.712373-.007697-5.4238987-.103052-8.1299165-.291624-1.2956009-.090223-2.5903544-.201827-3.8825658-.333956-.6833892-.070126-1.3663547-.145811-2.0480492-.227055-.3075887-.036774-.6151774-.074831-.9223424-.113742-.1711651-.021808-.3419065-.044043-.5130715-.066278-.6783051-.088086.4368098.062429-.2410716-.03207-5.1849455-.723072-10.3241339-1.769411-15.3781635-3.144573-4.6400983-1.261849-9.2069007-2.799072-13.667784-4.603546-.533408-.215938-1.0655449-.435725-1.5964108-.658932-.1114267-.047464-.2228535-.0945-.3342802-.141536.4808721.203966-.0783801-.034635-.1465919-.064567-.2775077-.119728-.554168-.240312-.8308284-.362178-1.1028283-.486609-2.1984542-.989467-3.2864538-1.509002-2.1090586-1.006571-4.1888835-2.074289-6.2369327-3.202726-4.6256933-2.548071-9.0819162-5.403586-13.3415536-8.534903-.9244607-.679885-2.4687593-.189-2.9809835.788922-.5978066 1.142548-.2050591 2.283386.781682 3.008596" fill="#03243b" mask="url(#a)"/><path d="m64.3020603 330.591376c-.3428193 2.243071-.6856385 4.486143-1.0280377 6.728791-.7822665 5.117165-1.5636928 10.234331-2.3459594 15.351496l-2.5833281 16.908526c-.5722057 3.745506-1.1448316 7.490588-1.7170373 11.236094-.0978883.64245-.1369597 1.827469-.5961526 2.199057-.4188613.338577-1.0145939.345771-1.4048869.027086-.1298176-.105805-.1873743-.214996-.2777004-.35085-.1088115-.163787-.0504146-.108768-.0176451-.016083-.0050415-.014389-.0084025-.030048-.0130238-.044861-.0680597-.206955-.1239359-.418989-.1856938-.628483-.8331012-2.825847-1.6662025-5.652117-2.4993038-8.477964-1.4523606-4.925446-2.9043011-9.850892-4.3566617-14.776761-1.6447763-5.5789-3.2899728-11.158222-4.9347491-16.737122-1.4111887-4.787053-2.8227975-9.574105-4.2344063-14.360735-.7511775-2.54906-1.5027752-5.09812-2.2543729-7.647181l-.1046103-.354236c-.1705694-.578543-1.0129133-.911618-1.4443783-.384284-1.5300831 1.871483-3.0605863 3.742543-4.5906694 5.614026-3.4256721 4.188619-6.8517643 8.378084-10.2770163 12.567125-3.6458158 4.45821-7.2912115 8.915997-10.93702738 13.373784-2.15774489 2.63836-4.3159099 5.277143-6.47323467 7.915926-.10797126.131622-.21804314.261974-.32349368.395712-1.34817043 1.701771-.66967394 4.267337 1.29565522 5.133671 1.35531251.598011 2.51862941.075333 3.68320667-.560345 2.76440058-1.507937 5.52838104-3.016296 8.29278164-4.524233 4.6599895-2.542288 9.3199791-5.085 13.9799686-7.627289 5.2326154-2.855049 10.4652308-5.709674 15.6982663-8.564723 4.4953018-2.452566 8.9906037-4.905132 13.4863257-7.358121l7.1067781-3.877128c.1083914-.058827.2172029-.118502.3255943-.177752.9788835-.533682.107131-2.037386-.8721726-1.503281-1.636794.892996-3.273588 1.785569-4.9103821 2.678989-4.0100613 2.188052-8.0205427 4.375682-12.0306041 6.563734-5.0990166 2.782255-10.1980333 5.563664-15.29705 8.345495-4.9019796 2.674757-9.8043794 5.349514-14.7067791 8.023848-3.4273526 1.870213-6.8542851 3.740004-10.28205776 5.609794-.7503373.409678-1.50109472.819356-2.25185214 1.228611-.33777782.184524-.6843782.332228-1.08559439.284827-.7133666-.083374-1.32464362-.708895-1.42169173-1.421599-.05293533-.386824.06133777-.751641.26425653-1.076674-.01680487.026663-.07016032.082105-.03066888.026239.4537314-.644565 1.01081273-1.236651 1.50907703-1.845666 1.15029313-1.406364 2.30058626-2.81315 3.45087939-4.219514 3.42819285-4.192427 6.85680575-8.384855 10.28541865-12.577282 3.5769159-4.373566 7.1534117-8.747555 10.7307477-13.121544 2.1027089-2.571914 4.205838-5.143405 6.3089671-7.715319.0983085-.119772.1961968-.239967.2945053-.359738l-1.4443783-.384708c.5364953 1.818581 1.0725706 3.636738 1.6082257 5.455319 1.3187619 4.47133 2.6371037 8.943506 3.9554455 13.414836 1.6502379 5.596675 3.3000557 11.192926 4.9502936 16.789601 1.5464679 5.246671 3.093776 10.492919 4.6402439 15.73959.9919072 3.363337 1.9833944 6.726674 2.9748815 10.089588.1508237.510828.2764401 1.038585.4541515 1.540525.5906911 1.667914 2.6081154 2.365805 4.1108906 1.461382.783947-.471468 1.2044888-1.249772 1.3372472-2.135996.4226424-2.822884.8620897-5.643653 1.2931345-8.465267.8263793-5.408765 1.6531788-10.817529 2.4795581-16.226717.8465452-5.539963 1.6930903-11.079926 2.5392154-16.619466.4911222-3.214363.9826646-6.428304 1.4737868-9.642667.0231067-.152783.0466335-.30472.0697402-.457079.0710005-.464274-.1167938-.936165-.6037149-1.071172-.4091985-.113-.9914871.140932-1.0629078.608168" fill="#03243b" mask="url(#a)"/><path d="m7.16454487 343.216636c-1.83971066 3.484745-4.18525348 6.699268-6.10838672 10.140563-.27101304.484578.51245299.915361.78390742.429541 1.92313325-3.440881 4.26823467-6.655818 6.10838673-10.140563.25821275-.489544-.52437051-.920741-.78390743-.429541" fill="#03243b" mask="url(#a)"/><path d="m3.32788293 340.226668c-1.13667484 2.669695-2.14505521 5.418144-3.28173005 8.087396-.21993336.51633.40567837.97647.62596419.459255 1.13667484-2.669252 2.14505521-5.417702 3.28173005-8.086954.21993336-.516772-.40567837-.976912-.62596419-.459697" fill="#03243b" mask="url(#a)"/><path d="m70.0051859 348.322367c-1.0391148 3.662647-1.0046418 7.486551-1.0051343 11.239959 0 .582904 1.0135063.584226 1.0135063 0 0-3.671899-.0487546-7.414733.9686915-10.998954.1605457-.565281-.8165178-.806725-.9770635-.241005" fill="#03243b" mask="url(#a)"/><path d="m69 215.499779c0 5.246873 4.2532492 9.500221 9.5 9.500221s9.5-4.253348 9.5-9.500221c0-5.246431-4.2532492-9.499779-9.5-9.499779s-9.5 4.253348-9.5 9.499779" fill="#6eb2fc" mask="url(#a)"/><path d="m49 190.499795c0 4.142302 3.3579028 7.500205 7.4997949 7.500205 4.1423023 0 7.5002051-3.357903 7.5002051-7.500205 0-4.141892-3.3579028-7.499795-7.5002051-7.499795-4.1418921 0-7.4997949 3.357903-7.4997949 7.499795" fill="#6eb2fc" mask="url(#a)"/><path d="m38 244.5c0 4.142137 3.3578628 7.5 7.5 7.5s7.5-3.357863 7.5-7.5c0-4.142567-3.3578628-7.5-7.5-7.5s-7.5 3.357433-7.5 7.5" fill="#6eb2fc" mask="url(#a)"/><path d="m20 224.5c0 3.59018 2.9101465 6.5 6.4997898 6.5 3.5900637 0 6.5002102-2.90982 6.5002102-6.5s-2.9101465-6.5-6.5002102-6.5c-3.5896433 0-6.4997898 2.90982-6.4997898 6.5" fill="#6eb2fc" mask="url(#a)"/><path d="m68 248c0 2.208949 1.7907117 4 4.0002188 4 2.2090695 0 3.9997812-1.791051 3.9997812-4s-1.7907117-4-3.9997812-4c-2.2095071 0-4.0002188 1.791051-4.0002188 4" fill="#6eb2fc" mask="url(#a)"/><path d="m43 220c0 2.208949 1.7907117 4 4.0002188 4 2.2090695 0 3.9997812-1.791051 3.9997812-4s-1.7907117-4-3.9997812-4c-2.2095071 0-4.0002188 1.791051-4.0002188 4" fill="#6eb2fc" mask="url(#a)"/><path d="m85 232c0 2.761304 2.2386957 5 5 5 2.7617391 0 5-2.238696 5-5s-2.2382609-5-5-5c-2.7613043 0-5 2.238696-5 5" fill="#6eb2fc" mask="url(#a)"/><path d="m19 263.5c0 4.141791 3.3577833 7.5 7.5 7.5s7.5-3.358209 7.5-7.5c0-4.142217-3.3577833-7.5-7.5-7.5s-7.5 3.357783-7.5 7.5" fill="#6eb2fc" mask="url(#a)"/><path d="m92 201.5c0 2.485028 2.0149725 4.5 4.5 4.5 2.4854782 0 4.5-2.014972 4.5-4.5 0-2.485478-2.0145218-4.5-4.5-4.5-2.4850275 0-4.5 2.014522-4.5 4.5" fill="#6eb2fc" mask="url(#a)"/><path d="m102.782163 260.012833c-3.6072539-1.241349-7.4641922-1.834801-11.284612-2.03206-.478561-.030155-.9588206-.018428-1.4378062-.029736-.4789856.000838-.9583959-.027641-1.4369568-.00335l-1.435683.062402-.7172045.030992c-.2386436.014658-.4760132.046907-.7142321.069522-.9499033.111404-1.9078745.155797-2.8467373.342586-.9409859.165011-1.8908892.283952-2.8131913.535238-.9248498.232857-1.8654112.409176-2.7647831.729984l-1.3617969.433886-.6798368.219037-.6611531.269294-1.322306.53775c-.4373716.184695-.8896054.341748-1.30617.564973l-1.2705009.630308-1.2479953.693966c-.8305815.465297-1.643753.973312-2.4598969 1.471275-.8063774.518905-1.6199736 1.022313-2.4191322 1.556713-1.6076592 1.049954-3.1966346 2.135087-4.7851853 3.225247-3.177526 2.179481-6.3397653 4.395817-9.5818356 6.52211-3.2505629 2.111215-6.5576019 4.177199-10.175472 5.81181-3.6119253 1.538704-7.3775675 2.751993-11.2455463 3.501242-3.8819916.709044-7.8009263 1.094767-11.8141294.661718l.1685792-1.354427c1.8322898.105539 3.7732856.031829 5.6548329-.157473 1.8934369-.177575 3.7796551-.458176 5.6420939-.8506 3.7227544-.789874 7.3754444-1.922752 10.870171-3.430464 3.4522634-1.511481 6.7461388-3.503754 9.9852367-5.556755 3.2369746-2.068916 6.4191716-4.243372 9.629819-6.390605 3.2174416-2.138856 6.4293629-4.302423 9.8620932-6.178268l1.2968281-.690197 1.3375928-.633658c.4411933-.224481.9078646-.378184 1.3639201-.561203l1.3749605-.530212.6870556-.264688.7053148-.213173 1.4119035-.42216c.9324933-.312012 1.9040528-.478279 2.8599009-.69941 3.8437747-.799925 7.7958307-1.054561 11.6990539-.774797 3.9015248.305312 7.7665311.996347 11.4506439 2.370877z" fill="#03243b" mask="url(#a)"/><path d="m139.853914 318.422463c3.359782.710405 5.625121 3.528371 7.146086 7.56526-8.765842 10.101092-27.186224 28.647212-36.108845 39.012277l-10.891155-3.12502c4.851538-14.779963 9.803157-34.48123 12.761328-44.103791 9.001224-.980713 17.94661-1.282276 27.092586.651274" fill="#03243b" mask="url(#a)"/><path d="m139.859418 319.136419c3.396076.765663 5.2841 3.937029 6.424437 6.996284l.223588-.849746c-4.29423 5.052612-8.817541 9.91073-13.318451 14.776492-5.102356 5.515493-10.235989 11.002958-15.279172 16.573656-2.347033 2.592129-4.67885 5.200819-6.93332 7.875332.281914-.075165.563828-.149905.845743-.22507-3.129377-.917267-6.258332-1.834959-9.387709-2.75265-.442948-.129946-.886319-.259468-1.329267-.389839.202454.358414.404909.716827.607363 1.074392 1.995379-6.218306 3.783233-12.503709 5.521635-18.798878 1.642458-5.946524 3.22363-11.910033 4.854254-17.859529.704152-2.568348 1.415067-5.135421 2.18135-7.685509-.279801.213605-.55918.427634-.838558.641238 6.805254-.753348 13.682784-1.10794 20.504099-.345674 1.989885.222098 3.966245.55036 5.924008.969501 1.091731.233563 1.557926-1.450217.46239-1.685054-6.874148-1.471874-13.916092-1.703739-20.912389-1.229817-1.996648.135042-3.989068.323591-5.978108.54399-.395188.044165-.718523.242481-.838136.641662-1.502557 5.00038-2.830133 10.054266-4.1911 15.094988-1.704166 6.309608-3.410869 12.618792-5.22704 18.896975-1.002128 3.463957-2.037223 6.918571-3.139099 10.352377-.1458176.453963.171178.946144.60694 1.074392 3.129378.917267 6.258755 1.834958 9.38771 2.75265.44337.129946.886318.259892 1.329267.389839.277687.081534.652587.004671.846166-.224646 4.320011-5.12438 8.88263-10.044074 13.428342-14.965466 5.085027-5.505301 10.20767-10.975355 15.248318-16.521423 2.317446-2.549238 4.622213-5.112914 6.854283-7.738591.191465-.22507.336015-.548662.223587-.849746-1.349555-3.622356-3.620509-7.310533-7.638741-8.217184-1.090041-.245454-1.55539 1.438326-.46239 1.685054" fill="#03243b" mask="url(#a)"/><path d="m54.2533542 280c1.7007888 2.894877 3.7633299 5.571969 6.1523409 7.909437 2.3911364 2.334496 5.1176696 4.317056 8.079278 5.848339 2.9713856 1.516425 6.1455395 2.607894 9.3979101 3.341908 3.2591721.714062 6.5897595 1.10463 9.9322494 1.21331 6.6943318.233068 13.3848374-.530664 20.0451624-1.474821 3.334413-.476748 6.68583-.926326 10.044473-1.308829 3.359069-.385049 6.731315-.699202 10.12099-.87326 3.38925-.159199 6.801455-.191888 10.213235.147737 3.399877.340049 6.839712 1.04562 10.000689 2.57478 3.155449 1.50751 5.904512 3.989743 7.696271 6.97462 1.886978 2.930538 3.06363 6.228295 3.860675 9.557891.788544 3.343607 1.101836 6.761081 1.189405 10.160726.07269 3.403465-.143256 6.798015-.533489 10.162423-.387258 3.365682-.944127 6.706741-1.691012 10.003648-.754111 3.294786-1.599617 6.565373-2.704428 9.762091l-.27716-.089576c1.754776-6.485985 2.949281-13.124376 3.562687-19.788664.156434-1.666284.239327-3.337238.30054-5.006494.033582-1.669256.039533-3.338512-.034008-5.002249-.129227-3.325351-.489704-6.646457-1.284624-9.854214-.781743-3.200539-1.921836-6.334851-3.705518-9.071378-1.688461-2.787895-4.131034-5.020929-7.052258-6.439287-2.91825-1.428546-6.186774-2.127749-9.477402-2.468647-3.300406-.343446-6.651398-.327314-9.994738-.183822-6.696883.312879-13.372935 1.190385-20.05579 2.070013-6.690931.861373-13.4711311 1.551661-20.26876 1.229017-3.3947761-.15368-6.7844511-.593919-10.1027109-1.364867-3.3152841-.784958-6.5344976-1.994022-9.5398904-3.598749-2.9939154-1.628501-5.7336264-3.709552-8.1128603-6.131502-2.3868855-2.418977-4.3805619-5.198382-6.0146114-8.15524z" fill="#03243b" mask="url(#a)"/><path d="m53.2553217 283c1.6523081 2.793268 3.5672205 5.429764 5.7631582 7.804833 2.1955092 2.372505 4.6866089 4.469485 7.43046 6.162362 2.7369968 1.706119 5.7224609 2.982504 8.8073121 3.898785 3.0921338.903893 6.2913656 1.431021 9.5115886 1.651441 6.4537261.451519 12.9374398-.245623 19.3594654-1.211455 6.437018-.981211 12.901883-1.991897 19.424152-2.62539 3.262633-.310553 6.544545-.524139 9.846591-.491247 3.29562.043572 6.634079.314825 9.880006 1.224271 1.617608.4575 3.207371 1.082023 4.68361 1.94149 1.474525.857331 2.830386 1.946189 3.963911 3.231118.569333.63862 1.077835 1.337898 1.535358 2.029914.460093.699706.895339 1.415216 1.290745 2.151231.796381 1.469467 1.472812 2.999591 2.020725 4.570725.555196 1.568143.994298 3.173449 1.317734 4.797979.331147 1.622821.562907 3.261874.709417 4.904345.311441 3.287077.22919 6.587396-.036413 9.853969-.29045 3.266146-.762538 6.512215-1.487806 9.701043-.723982 3.187973-1.57434 6.343909-2.729285 9.404586l-.27717-.097822c.919329-3.107238 1.647596-6.276844 2.20065-9.465244.536775-3.192246.969023-6.400724 1.139094-9.623298.180782-3.220439.113524-6.447285-.215909-9.635685-.331576-3.187547-1.001581-6.333658-2.06742-9.32855-.531206-1.498514-1.182791-2.949613-1.944043-4.337917-.377842-.695006-.792954-1.369509-1.230342-2.027351-.445956-.660406-.891913-1.284075-1.404698-1.863745-1.017003-1.161904-2.228924-2.144396-3.567649-2.930817-1.339153-.787275-2.804683-1.372926-4.320762-1.80864-3.041584-.867583-6.263948-1.151225-9.479459-1.205903-3.222365-.044852-6.460152.151646-9.691085.445539-6.468292.595476-12.901455 1.594628-19.366748 2.524151-6.4717183.885097-13.0595312 1.509621-19.6370627.961988-3.2819114-.26869-6.549686-.850069-9.7065069-1.819319-3.1546791-.971813-6.1795553-2.374214-8.9418272-4.170893-2.7674126-1.791981-5.2576556-3.984647-7.4313168-6.438742-2.1830859-2.45025-4.0217446-5.180296-5.6037964-8.032941z" fill="#03243b" mask="url(#a)"/><path d="m39 385.499823c0 .828562 4.7012276 1.500177 10.5 1.500177 5.799195 0 10.5-.671615 10.5-1.500177 0-.828561-4.700805-1.499823-10.5-1.499823-5.7987724 0-10.5.671262-10.5 1.499823" fill="#03243b" mask="url(#a)"/><path d="m103 159.645567c.027017 1.865723 1.247152 3.538989 3.125701 4.121948 1.990083.618184 4.36694-.029642 5.728292-1.549114 1.277251-1.42625 1.555638-3.532116.484816-5.147387-1.096907-1.653505-3.162996-2.357608-5.141386-1.96453-2.273418.451932-4.164559 2.256653-4.197423 4.539083-.008062.570929 1.462126.18945 1.469322-.293842.019788-1.392312.793335-2.868395 2.239687-3.351258 1.452199-.48501 3.065403.195465 3.980617 1.302527.981774 1.187826 1.120743 2.914361.345397 4.231065-.718229 1.220045-2.068787 1.850688-3.512441 1.53107-1.776459-.392648-3.028974-1.99632-3.05326-3.713404-.008545-.576085-1.476035-.185155-1.469322.293842" fill="#03243b" mask="url(#a)"/><path d="m107 153.500223c0 .828402.671375 1.499777 1.500223 1.499777.828402 0 1.499777-.671375 1.499777-1.499777 0-.828401-.671375-1.500223-1.499777-1.500223-.828848 0-1.500223.671822-1.500223 1.500223" fill="#03243b" mask="url(#a)"/><path d="m170 118.068188v-13.40493-7.923061c0-2.3534306-.065478-4.6657366-.844362-6.9271667-1.398997-4.0620102-4.397274-7.4884966-8.334065-9.3200261-3.961613-1.8434005-8.631069-1.9845809-12.703094-.3968314-4.303552 1.6772062-7.68742 5.0998769-9.583276 9.2458322-.954776 2.0884523-1.486728 4.4033021-1.529524 6.6961057-.010699.5668414-.002996 1.1341067-.002996 1.7009482v15.5336591.390896c0 .575321.393722.836059.902565.507486.53452-.345107 1.023676-1.141738 1.023676-1.787861v-14.0031448c0-1.9489678-.125819-4.0755771.230242-5.9210974.214835-1.1124846.421967-1.7819256.84907-2.7769718.037232-.0856409.074893-.1712819.113409-.2569229.009843-.0216222.209272-.4388039.070185-.157291.103138-.2085909.212268-.4150619.325249-.6185652.12368-.2234296.253779-.4438915.389014-.6609617.061198-.0983599.123252-.1962958.187018-.2933839-.166904.2539552.147218-.206895.178459-.2497154 1.123819-1.5601918 2.445355-2.7769718 4.20726-3.820774 3.523811-2.0876045 7.994266-2.5700768 11.909659-1.3660158 3.950486 1.2146602 7.269732 3.9890882 9.12964 7.6496034 1.182878 2.3271447 1.55563 4.8103086 1.55563 7.3820813v6.9030002 14.85574.300167c0 .574473.393293.835635.902136.507062.53452-.345107 1.024105-1.141738 1.024105-1.787861" fill="#03243b" mask="url(#a)"/><path d="m228 221h17.531548l3.468452-9-18.302741.62707z" fill="#6eb2fc" mask="url(#a)"/><path d="m232 232h8.399205l3.600795-9h-8.383308z" fill="#6eb2fc" mask="url(#a)"/><path d="m130.753551 130.610993c-2.377718-.526138-.142458-3.433653-3.597806-4.021166-3.167011-.538837-1.711632-4.183283-6.094453-3.980108-4.465386.206984-4.390521-2.797039-8.243296-1.427726-.890254.316191-1.618799.388995-2.269484.353016.378604-.209947-.405556-3.361695 3.609356-3.10942 1.736445.109207 1.127684-2.477461 2.73151-3.735028 1.255595-.984974 3.477166-.123598 4.986447-2.612065.879987-1.451006.293472-2.902436 0-4.353442-.293043-1.451429 1.759974-3.482753 1.759974-5.224129 0-1.741377-2.933432-2.6120654-1.173458-5.2241304 1.200409-1.781165-2.053017-4.3534415-.586516-6.3847654 1.950345-2.7018004-2.58734-3.9157694-1.466501-6.9655065 1.173458-3.1923827-1.30351-3.2567214-3.813418-2.9020122-2.053445.2899473.505661-3.939473-4.106461-2.9024354-6.45295 1.4510061-2.63996-2.3216944-7.919879-1.1610589-3.8947.8562968-5.5729635-4.063071-9.9728963-.8706883-2.0346214 1.4768262-6.4533774-2.9020122-9.0929093 0-2.6399597 2.9024355-5.2799194-1.7409533-9.6798523 2.3221177-4.3999328 4.063071-7.9198791 0-10.8533102 4.6433888-2.9330034 4.6438121.088127 6.0723843-1.9935525 8.4770417-3.1995233 3.6956634-3.842936 8.0016976-1.8194375 10.3877309 2.7191029 3.206351 1.7599732 4.933759 2.9334312 7.255453 1.8352661 3.631748 4.399505.580318 5.5729631 2.902436 1.0493957 2.076615-.3165728 5.309209 6.746421 4.643389 6.159906-.580318 2.9334312 8.416512 9.6854137 4.809315 4.4328735-2.368256 8.2586975 4.673865 8.5590137 4.760214-1.0695024.510476-3.1725719 1.757884-2.7546103 3.522965.5557134 2.347091-3.9691373 2.436403-2.2900186 5.481908 1.7599732 3.192382-2.0534445 3.773123.8136775 6.190479 3.3394142 2.81651-1.4001926 5.418839 2.7644497 6.908364 3.6962003 1.321905-.9244778 3.146245 3.4617654 4.60487l3.8129897-3.192383s1.7373-2.903282 1.759973-3.192382c-2.053444-2.612065 1.853662-8.446989 5.866435-7.255877 2.933431.871111 4.461536 3.641483 3.226475 5.224129-1.419872 1.820107.642557 6.635348.642557 6.635348s-.250264-2.557038.410689-4.471537c.446624-1.293546 2.621992-1.835768 2.876105-2.845292.628868-2.502436 1.603826-4.157886 5.198638-3.525505 4.193732.737355 4.916716-3.692277 6.722892-4.712807 1.536661-.868148 2.642098-.440635 2.950971.460529.308872.900742 1.628638.098202 1.839116 1.522964l1.638478-.326349s1.985852-5.642331-2.841882-6.709845" fill="#03243b" mask="url(#a)"/><path d="m15.0642899 308.112952c7.7723341 5.713596 16.1856898 10.436015 25.0502603 14.187353 9.3034987 3.936061 19.0921063 6.694939 29.0645893 8.223182 6.1712629.945425 12.3976037 1.458545 18.6404678 1.476513 1.1396881.003412 2.2315009-1.013849 2.1785414-2.19873-.0529595-1.194287-.9570838-2.195728-2.1785414-2.199148-2.712373-.007697-5.4238987-.103052-8.1299165-.291624-1.2956009-.090223-2.5903544-.201827-3.8825658-.333956-.6833892-.070126-1.3663547-.145811-2.0480492-.227055-.3075887-.036774-.6151774-.074831-.9223424-.113742-.1711651-.021808-.3419065-.044043-.5130715-.066278-.6783051-.088086.4368098.062429-.2410716-.03207-5.1849455-.723072-10.3241339-1.769411-15.3781635-3.144573-4.6400983-1.261849-9.2069007-2.799072-13.667784-4.603546-.533408-.215938-1.0655449-.435725-1.5964108-.658932-.1114267-.047464-.2228535-.0945-.3342802-.141536.4808721.203966-.0783801-.034635-.1465919-.064567-.2775077-.119728-.554168-.240312-.8308284-.362178-1.1028283-.486609-2.1984542-.989467-3.2864538-1.509002-2.1090586-1.006571-4.1888835-2.074289-6.2369327-3.202726-4.6256933-2.548071-9.0819162-5.403586-13.3415536-8.534903-.9244607-.679885-2.4687593-.189-2.9809835.788922-.5978066 1.142548-.2050591 2.283386.781682 3.008596" fill="#6eb2fc" mask="url(#a)"/></g></svg>